<?xml version="1.0" encoding="utf-8"?>
<!-- Generator: Adobe Illustrator 28.2.0, SVG Export Plug-In . SVG Version: 6.00 Build 0)  -->
<svg version="1.1" id="Layer_1" xmlns="http://www.w3.org/2000/svg" xmlns:xlink="http://www.w3.org/1999/xlink" x="0px" y="0px"
	 viewBox="0 0 104 104" style="enable-background:new 0 0 104 104;" xml:space="preserve">
<style type="text/css">
	.st0{fill:#2F4293;}
</style>
<path class="st0" d="M92.5,34.9c-1.4-5.9-4-11.5-7.5-16.3l0-0.4l-0.1,0.2c-3.8-5.2-8.6-9.5-14.2-12.8l-0.2-0.1l-0.2-0.1
	c-0.4-0.2-0.8-0.4-1.2-0.5l-0.3-0.1l-0.2,0c-0.2,0-0.4-0.1-0.5-0.1l-0.3-0.1l-0.2,0c-0.3,0-0.6-0.1-0.9-0.1c-0.3,0-0.6,0-1.1,0.1
	c-0.3,0-0.6,0.1-0.9,0.2l-0.2,0.1c-0.2,0.1-0.6,0.2-1,0.4c-0.3,0.1-0.6,0.3-0.9,0.4l-0.1,0.1l-0.3,0.2c-0.5,0.3-1,0.7-1.4,1.1
	c-0.1,0.1-0.2,0.2-0.2,0.3l-0.1,0.2l-0.2,0.3c-0.2,0.2-0.4,0.5-0.5,0.7l-0.7,1.1c-0.9-0.3-1.8-0.5-2.8-0.7l-3.2-0.8
	c0,0-6-0.3-10.4,0.2C30.9,9.8,20.6,16.7,14.8,27c-8.3,14.7-5.6,33,5.7,44.7l-0.7,1.2c-0.1,0.1-0.2,0.3-0.3,0.5l-0.1,0.2l-0.1,0.3
	c-0.2,0.4-0.3,0.7-0.4,1.1c-0.1,0.3-0.2,0.6-0.2,1l0,0.2c0,0.3-0.1,0.6-0.1,0.9c0,0.2,0,0.3,0,0.5l0,0.2l0,0.2
	c0,0.2,0.1,0.5,0.1,0.7l0,0.2l0.1,0.2c0.1,0.5,0.3,1,0.5,1.4l0.1,0.3l0.1,0.2c0.1,0.2,0.3,0.5,0.6,0.9c0.2,0.2,0.3,0.4,0.5,0.6
	c0.2,0.3,0.5,0.5,0.8,0.8c0.2,0.1,0.3,0.3,0.5,0.4c0.1,0.1,0.3,0.2,0.4,0.3c3.2,2.1,6.7,3.8,10.4,5.1l1.5,10.3h27.1L62.7,89
	c10-3.4,18.5-10.2,24.2-19.3C93.4,59.2,95.3,46.9,92.5,34.9z M48.1,15.4c0.3,0,0.8,0,1.3,0l0.2,0c1.6,0,1.9,0,2.5,1.4l0.2,0.4
	c0.6,1.3,0.7,1.4,1.5,2.3c0.1,0.2,0.3,0.4,0.5,0.6c0.1,0.1,0.1,0.1,0.2,0.2c0.5,0.4,1,0.7,1.6,1c-0.8,0.2-1.6,0.7-2,1.8
	c-0.4,1-0.1,1.7,0.2,2.1c0.2,0.3,0.8,0.9,1.9,0.9c0.7,0,1.5-0.2,2.1-0.4c0.3,0.4,0.7,1.1,1,1.6c0.5,0.8,1,1.8,1.7,2.8
	c0.7,1,0.7,1.8,0.5,2.1c0,0.1-0.1,0.2-0.3,0.2c0,0-0.1,0-0.1,0c-0.8-0.3-1.7-0.4-2.6-0.4c-1.6,0-4.1,0.5-6.5,2.7
	c-1,0.9-1.5,1.1-1.9,1.1c-0.6,0-1.3-0.3-2.3-0.8c-0.4-0.2-0.9-0.4-1.5-0.6c-1.1-0.4-2-0.6-2.9-0.6c-2.1,0-3.5,1.4-3.6,3.5
	c0,0.2,0,0.4,0,0.6c-1.8-3.3-1.8-3.5-1.7-5c0-0.4,0-0.8,0-1.2c0-1.6,0.1-3.9,0.8-5.7c0.6-1.5,1.9-2.3,3.4-3.3
	c0.5-0.3,1.1-0.7,1.6-1.1C46,20.2,48.1,17.5,48.1,15.4z M42,59c-0.9-2.2-1.1-4.9,0-6.1c0.6-0.6,1.2-1,1.7-1.4c1.1-0.8,2.1-1.6,2.2-3
	c0-0.1,0-0.3,0-0.5c0.6,0.2,1.3,0.4,1.8,0.7l0.2,0.1c1.6,0.9,2.8,1.6,5.2,5.5c1.1,1.8,1.7,2.9,2.2,3.8c0.6,1.2,1.1,2.1,2.3,3.6
	c0.8,1,0.7,1.4,0.6,1.5c-0.2,0.5-0.9,1.2-1.7,1.9l-0.3,0.3c-1.4,1.3-5.9,2.7-11.3,3.5c-1.9,0.3-3.4,0.3-4.7,0.3
	c-1.6,0-2.8,0-3.9,0.4c-0.3,0.1-0.5,0.2-0.8,0.3c0.3-0.3,1-0.8,1.5-1.1c0.7-0.5,1.5-1,2.2-1.7C40.4,66.1,43.6,63,42,59z M41.9,41.4
	c-0.3-0.7-0.7-1.5-1.2-2.4c0.3,0.2,0.7,0.5,1.4,0.5c0,0,0.1,0,0.1,0C42,40,41.8,40.7,41.9,41.4z M20.6,30.2
	c5-8.9,14.1-14.7,24.1-15.7c0,0.3,0.1,0.6,0.3,1c0,0.6-1,2.4-2.6,3.6c-0.5,0.3-1,0.6-1.5,1c-1.8,1.1-3.7,2.4-4.7,4.8
	c-0.9,2.3-0.9,4.9-1,6.7c0,0.4,0,0.8,0,1.1c-0.1,2.2,0,2.9,2.4,7c1,1.9,1.8,3.5,2.3,4.8c0.7,1.5,1.2,2.7,1.9,3.4
	c0.2,0.3,0.5,0.4,0.7,0.6c-0.2,0.2-0.5,0.4-0.7,0.6c-0.5,0.4-1.2,0.9-1.9,1.6c-2.4,2.4-1.9,6.5-0.7,9.4c0.6,1.5,0,2.9-1.9,4.8
	c-0.5,0.5-1.2,0.9-1.8,1.4c-1.5,1-3.6,2.4-2.9,4.6c0.1,0.4,0.5,1.6,1.5,2c0.3,0.1,0.6,0.2,1,0.2c0.6,0,1.1-0.2,1.7-0.4
	c0.2-0.1,0.4-0.2,0.7-0.3c0.7-0.2,1.7-0.3,3-0.3c1.3,0,3,0,5.1-0.3c2.3-0.3,10.1-1.6,12.9-4.3l0.3-0.3c1.9-1.8,4.2-4,1.4-7.5
	c-1.1-1.4-1.4-2.1-2-3.2c-0.5-0.9-1.1-2.1-2.3-4c-2.8-4.5-4.4-5.5-6.3-6.5L49.3,46c-0.9-0.5-1.9-0.8-2.7-1c-0.4-0.1-1-0.3-1.2-0.4
	c0-0.2,0-0.4,0.1-0.8c0.1-0.7,0.3-1.8-0.4-3c0.1-0.2,0.2-0.6,0.3-0.8c0.3-0.6,0.9-1.8,0.3-2.8c0.4,0.2,0.8,0.3,1.2,0.5
	c1.2,0.6,2.3,1,3.5,1c1.3,0,2.6-0.6,4-1.9c1.7-1.5,3.3-1.9,4.4-1.9c0.6,0,1.2,0.1,1.7,0.3c0.4,0.1,0.7,0.2,1.1,0.2
	c1.3,0,2.4-0.7,3-1.9c0.8-1.5,0.5-3.5-0.7-5.3c-0.6-0.9-1.1-1.8-1.6-2.6c-0.5-0.9-1-1.7-1.5-2.3c0.7-0.5,0.9-1.1,0.9-1.4
	c0.1-1.4-1.2-2-2.9-3c-0.7-0.4-1.5-0.8-2-1.1c-0.2-0.2-0.3-0.4-0.5-0.5c-0.5-0.6-0.5-0.6-1-1.7l-0.2-0.4c0-0.1-0.1-0.2-0.1-0.2
	c2.9,0.7,5.8,1.8,8.4,3.3c3.2,1.8,5.9,4.1,8.2,6.7c-0.6,1.7-0.2,3,0.2,4.4c0.1,0.3,0.2,0.7,0.3,1.1c0.1,0.5,0.3,1.1,0.4,1.6
	c0.5,2,1,4.3,2.4,6.4c0.2,0.3,0.4,0.6,0.6,0.9c0.5,0.8,1,1.5,1,1.9c0,0.2,0.1,0.7-1.1,2c-2.8,3.1-5.8,11.7-4.7,15.1
	c0.3,1,1.3,2.6,4.2,2.8C69,70.8,58.8,76.7,47.7,76.7c-4.8,0-9.6-1.1-13.9-3.3c-0.5-0.2-0.9-0.5-1.4-0.7c-0.7-0.4-1.4-0.8-2-1.3
	C17,62.4,12.6,44.5,20.6,30.2z M77.7,37.8c-0.2-0.3-0.4-0.5-0.5-0.8c-1.1-1.7-1.5-3.6-2-5.5c-0.1-0.3-0.2-0.7-0.2-1
	c1,1.8,2,4,2.7,6.6l0,0.1c0,0.1,0,0.2,0.1,0.2c0.1,0.3,0.1,0.5,0.2,0.8C77.9,38.1,77.8,37.9,77.7,37.8z M78.7,43.7
	c0.1,6.1-1.8,12.5-2.6,14.5c-0.3,0-0.6,0.1-1,0.1c-0.7,0-1.6-0.1-1.8-0.7c-0.6-2,1.6-9.5,4.1-12.1C78,44.8,78.4,44.2,78.7,43.7z
	 M34.2,92.7c0.1,0,0.3-0.1,0.4-0.1c5.4-1.5,8.6-3.5,9.7-6h6.8c1.1,2.5,4.3,4.4,9.7,6c0.1,0,0.3,0.1,0.4,0.1H34.2z M81.2,66.2
	c-5.5,9-14.2,15.2-24.4,17.6c-1.3,0.3-2.6,0.5-3.8,0.7c-1.7,0.2-3.5,0.3-5.2,0.3c-1.8,0-3.5-0.1-5.3-0.4C36.7,83.8,31,81.7,26,78.3
	l0,0c0,0-0.1,0-0.1-0.1c0,0,0,0-0.1-0.1c0,0-0.1-0.1-0.1-0.1c0,0-0.1-0.1-0.1-0.1c0-0.1-0.1-0.1-0.1-0.2c0,0,0-0.1,0-0.1
	c0-0.1-0.1-0.2-0.1-0.2c0,0,0-0.1,0-0.1c0,0,0-0.1,0-0.1c0,0,0,0,0-0.1c0,0,0-0.1,0-0.1c0-0.1,0-0.1,0-0.2c0-0.1,0-0.1,0-0.2
	c0-0.1,0-0.1,0.1-0.2c0,0,0-0.1,0.1-0.1c0,0,0-0.1,0.1-0.1l0-0.1l1.9-3.1c0.8,0.6,1.7,1.2,2.5,1.7c0.3,0.2,0.6,0.4,1,0.6
	c5.1,2.9,10.9,4.4,16.8,4.4c12.3,0,23.7-6.7,29.8-17.4c0.4-0.7,0.7-1.4,1.1-2.1c0,0,0-0.1,0.1-0.1c3.2-6.7,4.1-14.2,2.6-21.5
	c0-0.1-0.1-0.3-0.1-0.4c0-0.1-0.1-0.3-0.1-0.4c-0.1-0.3-0.1-0.5-0.2-0.8c-1.6-6.1-4.7-10.7-6-12.4c-0.1-0.1-0.2-0.3-0.3-0.4
	c0-0.1-0.1-0.1-0.1-0.1c-2.4-3-5.2-5.5-8.5-7.6c-0.4-0.3-0.9-0.5-1.3-0.8c-0.4-0.2-0.9-0.5-1.3-0.7l2-3.2c0,0,0.1-0.1,0.1-0.1
	c0,0,0-0.1,0.1-0.1c0,0,0,0,0.1-0.1c0.1-0.1,0.1-0.1,0.2-0.2c0,0,0.1,0,0.1-0.1c0.1,0,0.1-0.1,0.2-0.1c0.1,0,0.1,0,0.2-0.1
	c0.1,0,0.1,0,0.2,0c0.1,0,0.3,0,0.4,0c0,0,0.1,0,0.1,0c0,0,0.1,0,0.1,0c0,0,0.1,0,0.1,0c0.1,0,0.1,0.1,0.2,0.1l0,0l0,0
	c9.4,5.4,16.3,14.5,18.7,25.1C88.5,46.7,86.8,57.3,81.2,66.2z"/>
</svg>
