<?xml version="1.0" encoding="utf-8"?>
<!-- Generator: Adobe Illustrator 28.2.0, SVG Export Plug-In . SVG Version: 6.00 Build 0)  -->
<svg version="1.1" id="Layer_1" xmlns="http://www.w3.org/2000/svg" xmlns:xlink="http://www.w3.org/1999/xlink" x="0px" y="0px"
	 viewBox="0 0 104 104" style="enable-background:new 0 0 104 104;" xml:space="preserve">
<style type="text/css">
	.st0{fill:#2F4293;}
</style>
<g>
	<path class="st0" d="M52.4,53.9c-1.1,0-2,0.9-2,2c0,1.1,0.9,2,2,2c1.1,0,2-0.9,2-2C54.4,54.8,53.5,53.9,52.4,53.9z"/>
	<path class="st0" d="M78.7,69.3H26c-2.8,0-5.1,2.3-5.1,5.1v11.1c0,2.8,2.3,5.1,5.1,5.1h52.7c2.8,0,5.1-2.3,5.1-5.1V74.4
		C83.8,71.6,81.5,69.3,78.7,69.3z M80.9,85.5c0,1.2-1,2.2-2.2,2.2H26c-1.2,0-2.2-1-2.2-2.2V74.4c0-1.2,1-2.2,2.2-2.2h52.7
		c1.2,0,2.2,1,2.2,2.2V85.5z"/>
	<path class="st0" d="M93.6,23.1c0-0.2-0.1-0.3-0.1-0.5c0-0.2-0.1-0.4-0.1-0.6c-0.1-0.2-0.1-0.5-0.2-0.7c0-0.1-0.1-0.3-0.1-0.4
		c-0.1-0.2-0.1-0.4-0.2-0.6c-0.1-0.2-0.1-0.3-0.2-0.5c-0.1-0.1-0.1-0.3-0.2-0.4c0-0.1-0.1-0.2-0.2-0.3c-0.1-0.2-0.2-0.4-0.3-0.5
		c-0.1-0.1-0.2-0.3-0.3-0.4c-0.1-0.1-0.2-0.3-0.3-0.4c-0.2-0.3-0.5-0.6-0.7-0.9c-0.1-0.2-0.3-0.3-0.4-0.4c-0.1-0.1-0.2-0.2-0.3-0.3
		c-0.1-0.1-0.2-0.2-0.3-0.3c-0.3-0.2-0.5-0.4-0.9-0.7c-0.1,0-0.3-0.2-0.3-0.2c-0.2-0.1-0.3-0.2-0.5-0.3l-0.2-0.1
		c-0.2-0.1-0.4-0.2-0.6-0.3c-0.4-4.6-4.3-8.3-9-8.3H65.9c-1.5,0-2.9,0.4-4.1,1c-2.6-1.5-5.9-2.4-9.4-2.4c-3.5,0-6.8,0.9-9.4,2.4
		c-1.2-0.6-2.6-1-4.1-1H26.7c-4.7,0-8.6,3.6-9,8.2c-0.2,0.1-0.4,0.2-0.5,0.3c-0.1,0.1-0.2,0.1-0.3,0.2c-0.2,0.1-0.4,0.2-0.5,0.3
		l-0.4,0.3c-0.3,0.2-0.5,0.4-0.8,0.6c-0.1,0.1-0.2,0.2-0.3,0.3c-0.1,0.1-0.2,0.2-0.3,0.3c-0.2,0.2-0.3,0.3-0.4,0.5
		c-0.3,0.3-0.5,0.6-0.7,0.8c-0.1,0.1-0.2,0.3-0.3,0.4c-0.1,0.1-0.2,0.3-0.3,0.4c-0.1,0.2-0.2,0.4-0.3,0.6c0,0.1-0.1,0.2-0.1,0.3
		c-0.1,0.1-0.1,0.3-0.2,0.4c-0.1,0.2-0.2,0.3-0.2,0.5c-0.1,0.2-0.1,0.4-0.2,0.5c0,0.1-0.1,0.3-0.1,0.4c-0.1,0.2-0.1,0.5-0.2,0.7
		c0,0.2-0.1,0.4-0.2,0.7c0,0.2-0.1,0.3-0.1,0.5L11,25.3v62.4c0,6.7,5.4,12.1,12.1,12.1h58.5c6.7,0,12.1-5.4,12.1-12.1v-61L93.6,23.1
		z M81.9,19.2c0.1,0,0.1,0,0.2,0c0,0,0,0,0.1,0c0.1,0,0.1,0,0.2,0c0.1,0,0.1,0,0.2,0c0.1,0,0.1,0,0.2,0c0,0,0.1,0,0.1,0
		c0.1,0,0.1,0,0.2,0l0,0c0.1,0,0.2,0,0.3,0.1l0,0c0.1,0,0.1,0,0.2,0.1c0.1,0,0.2,0.1,0.3,0.1c0.1,0,0.2,0.1,0.3,0.1
		c0.1,0,0.2,0.1,0.3,0.2c0.1,0,0.1,0.1,0.2,0.1c0.1,0,0.2,0.1,0.2,0.1l0,0c0.1,0,0.1,0.1,0.2,0.1c0.1,0.1,0.3,0.2,0.4,0.3
		c0,0,0.1,0.1,0.1,0.1c0.1,0.1,0.1,0.1,0.2,0.2c0.1,0.1,0.1,0.1,0.2,0.2c0.1,0.1,0.2,0.3,0.3,0.4c0,0.1,0.1,0.1,0.1,0.2
		c0,0.1,0.1,0.1,0.1,0.2c0.1,0.1,0.1,0.2,0.2,0.3c0,0,0,0.1,0.1,0.1c0,0.1,0.1,0.1,0.1,0.2c0,0.1,0.1,0.1,0.1,0.2l0,0.1
		c0,0.1,0.1,0.1,0.1,0.2l0,0c0,0.1,0,0.1,0.1,0.2c0,0.1,0.1,0.2,0.1,0.4c0,0.1,0,0.2,0.1,0.3c0,0.1,0,0.2,0,0.3
		c-2.2,1.1-6.7,4.6-7.4,13.9c-0.5,6.3-6.9,8.1-15.2,8.6V19.2h16.9C81.7,19.2,81.8,19.2,81.9,19.2z M63.3,14.9c0-1.5,1.2-2.7,2.7-2.7
		h12.1c1.5,0,2.7,1.2,2.7,2.7v1.4H63.3V14.9z M52.4,10.8c4.8,0,8.6,2.3,9.5,5.5h-3.2c-1-1.5-3.5-2.6-6.4-2.6c-2.8,0-5.4,1.1-6.4,2.6
		h-3.2C43.8,13.2,47.6,10.8,52.4,10.8z M54.7,40h-4.6c-2.1,0-3.7,1.7-3.7,3.7v3h-3.2c-0.1,0-0.1,0-0.2,0V19.2h1.1h2.4h11.7h2.4h0
		h1.1v27.5c0,0-0.1,0-0.1,0h-3.3v-3C58.4,41.7,56.8,40,54.7,40z M55.5,43.8v4.4v0v8.3c0,1.2-1,2.2-2.2,2.2h-2c-1.2,0-2.2-1-2.2-2.2
		v-8.3v0v0v-4.4c0-0.5,0.4-0.8,0.8-0.8h4.6C55.2,42.9,55.5,43.3,55.5,43.8z M24,14.9c0-1.5,1.2-2.7,2.7-2.7h12.1
		c1.5,0,2.7,1.2,2.7,2.7v1.4H24V14.9z M17.4,23.9c0-0.1,0-0.2,0.1-0.3c0-0.1,0.1-0.2,0.1-0.4c0-0.1,0-0.1,0.1-0.2l0,0
		c0-0.1,0.1-0.1,0.1-0.2l0-0.1c0-0.1,0-0.1,0.1-0.2c0-0.1,0.1-0.1,0.1-0.2c0,0,0-0.1,0.1-0.1c0-0.1,0.1-0.2,0.2-0.3
		c0-0.1,0.1-0.1,0.1-0.2c0-0.1,0.1-0.1,0.1-0.2c0.1-0.1,0.2-0.3,0.3-0.4c0.1-0.1,0.1-0.1,0.2-0.2c0.1-0.1,0.1-0.1,0.2-0.2
		c0,0,0.1-0.1,0.1-0.1c0.1-0.1,0.3-0.2,0.4-0.3c0.1,0,0.1-0.1,0.2-0.1l0,0c0.1,0,0.1-0.1,0.2-0.1c0.1,0,0.1-0.1,0.2-0.1
		c0.1-0.1,0.2-0.1,0.3-0.2c0.1,0,0.2-0.1,0.3-0.1c0.1,0,0.2-0.1,0.3-0.1c0.1,0,0.1-0.1,0.2-0.1l0,0c0.1,0,0.2,0,0.3-0.1l0,0
		c0.1,0,0.1,0,0.2,0c0,0,0.1,0,0.1,0c0.1,0,0.1,0,0.2,0c0.1,0,0.1,0,0.2,0c0.1,0,0.1,0,0.2,0c0,0,0,0,0.1,0c0.1,0,0.1,0,0.2,0
		c0.1,0,0.2,0,0.3,0h16.9v27.4c-8.3-0.5-14.7-2.3-15.2-8.6c-0.7-9.3-5.3-12.8-7.4-13.9C17.4,24,17.4,24,17.4,23.9z M87.5,87.8
		c0,3.2-2.6,5.8-5.8,5.8H23.1c-3.2,0-5.8-2.6-5.8-5.8V27.5c1.7,1.4,4.2,4.4,4.6,10.7c0.7,9.2,10.3,11,19.3,11.3c0.1,0,0.2,0,0.3,0
		h0.8c1.1,0,2.1,0,3.1,0c0.3,0,0.6,0,0.9,0v6.9c0,2.8,2.3,5.1,5.1,5.1h2c2.8,0,5.1-2.3,5.1-5.1v-6.9c0.3,0,0.6,0,0.9,0
		c1,0,2.1,0,3.1,0h0.8c0.1,0,0.2,0,0.3,0c8.9-0.3,18.6-2.1,19.3-11.3c0.5-6.3,2.9-9.3,4.6-10.7V87.8z"/>
</g>
</svg>
