<?xml version="1.0" encoding="utf-8"?>
<!-- Generator: Adobe Illustrator 28.2.0, SVG Export Plug-In . SVG Version: 6.00 Build 0)  -->
<svg version="1.1" id="Layer_1" xmlns="http://www.w3.org/2000/svg" xmlns:xlink="http://www.w3.org/1999/xlink" x="0px" y="0px"
	 viewBox="0 0 104 104" style="enable-background:new 0 0 104 104;" xml:space="preserve">
<style type="text/css">
	.st0{fill:#F8F8F8;}
</style>
<path class="st0" d="M97.5,44.5L97.5,44.5l5.6-1.5L80.5,17.5H23.6v0L1,43l24.2,6.4v8.6l0.1,0.4c0.2,1.1,0.6,3.2,1.9,4.8l0.2,0.3
	l0.3,0.2c0.1,0.1,0.2,0.2,0.3,0.2l0.2,0.2l0.1,0.1c4,3.2,13.2,5.2,23.8,5.2c7.4,0,14.1-1,18.8-2.6v1.7c-0.8,1.3-1.2,2.9-1.2,4.5
	c0,1.6,0.4,3.1,1.2,4.5v0.8c0,4.1,3.3,7.5,7.5,7.5c4.1,0,7.5-3.3,7.5-7.5v-0.7c0.8-1.3,1.3-2.9,1.3-4.5s-0.5-3.2-1.3-4.5V47.6
	L97.5,44.5z M73,57.7c-0.1,0.6-0.3,1.5-0.6,1.8c0,0-0.1,0.1-0.1,0.1c0,0-0.1,0-0.1,0.1c-2.4,1.9-9.7,3.9-20.1,3.9
	c-10.4,0-17.7-2-20.1-3.9c0,0-0.1,0-0.1-0.1c0,0-0.1-0.1-0.1-0.1c-0.3-0.3-0.5-1.2-0.6-1.8v-10l20.5,5.5c0.2,0.1,0.5,0.1,0.7,0
	L73,47.7V57.7z M79.8,75.4v2.9c0,0.8-0.7,1.5-1.5,1.5c-0.8,0-1.5-0.7-1.5-1.5v-3c-0.7-0.5-1.2-1.3-1.2-2.3c0-0.9,0.5-1.8,1.2-2.3
	V45.9h3v24.9c0.8,0.5,1.3,1.3,1.3,2.3C81.1,74,80.6,74.9,79.8,75.4z M80.8,42.8l-28.3-8.7c-0.7-0.2-1.5,0.2-1.7,0.9
	c-0.2,0.7,0.2,1.5,0.9,1.7l24.1,7.4L74,44.6l0,0l-21.9,5.8l-21.9-5.8l0,0l-18.3-4.9l14.4-16.3h51.5l14.4,16.3L80.8,42.8z"/>
</svg>
