<svg width="129" height="128" viewBox="0 0 129 128" fill="none" xmlns="http://www.w3.org/2000/svg">
<path d="M106.277 73.1361H83.7914V64.2457C83.7914 62.878 83.4206 61.6091 82.7944 60.5627C83.4124 60.4144 83.8656 59.8623 83.8656 59.2032C83.8656 58.8489 83.7337 58.5276 83.5195 58.2886L66.711 32.9029V28.7584L77.1998 24.4409C77.7272 24.2267 78.065 23.7159 78.065 23.1473C78.065 22.5788 77.7189 22.068 77.1998 21.8538L65.6893 17.1078C65.2609 16.9266 64.7665 16.976 64.3793 17.2397C63.992 17.5033 63.7613 17.94 63.7613 18.4014V27.885C63.7613 28.1157 63.819 28.33 63.9179 28.5277V33.0347L47.0929 58.4369C46.8045 58.8654 46.7798 59.4174 47.027 59.8706C47.2165 60.2249 47.5461 60.4721 47.9168 60.5627C47.2906 61.6091 46.9199 62.878 46.9199 64.2457V73.1361H21.9131C18.8645 73.1361 16.3927 75.6162 16.3927 78.6565V105.072C16.3927 108.121 18.8728 110.601 21.9131 110.601H106.277C109.325 110.601 111.797 108.121 111.797 105.072V78.6565C111.797 75.6162 109.317 73.1361 106.277 73.1361ZM66.5545 20.486L72.9895 23.1391L66.5545 25.7922V20.486ZM64.9231 36.5777C65.0467 36.6106 65.1785 36.6353 65.3103 36.6353C65.4751 36.6353 65.6234 36.6024 65.7717 36.5529L79.8447 57.8025H78.2627H52.4403H50.8583L64.9231 36.5777ZM60.4738 107.585V91.0487H68.8698V107.585H60.4738ZM108.996 105.08C108.996 106.58 107.776 107.808 106.269 107.808H71.6629V89.6562C71.6629 88.8817 71.0367 88.2555 70.2622 88.2555H59.0648C58.2903 88.2555 57.6641 88.8817 57.6641 89.6562V107.808H21.9131C20.4136 107.808 19.1859 106.588 19.1859 105.08V78.6648C19.1859 77.1652 20.4053 75.9458 21.9131 75.9458H48.3371C48.7243 75.9458 49.0951 75.781 49.367 75.5008C49.6389 75.2207 49.7625 74.8334 49.7378 74.4462C49.7295 74.3308 49.7213 74.2072 49.7213 74.0836V64.2622C49.7213 62.2848 50.9654 60.6204 52.4403 60.6204H78.2627C79.7376 60.6204 80.9818 62.2848 80.9818 64.2622V74.0836C80.9818 74.2072 80.9735 74.3308 80.9653 74.4462C80.9406 74.8334 81.0724 75.2125 81.3361 75.5008C81.5997 75.7892 81.9705 75.9458 82.3577 75.9458H106.269C107.768 75.9458 108.996 77.1652 108.996 78.6648V105.08Z" fill="#F8F8F8"/>
<path d="M32.6823 79.7358H25.308C24.9207 79.7358 24.6076 80.049 24.6076 80.4362V87.8187C24.6076 88.206 24.9207 88.5191 25.308 88.5191H32.6823C33.0695 88.5191 33.3826 88.206 33.3826 87.8187V80.4362C33.3826 80.049 33.0695 79.7358 32.6823 79.7358ZM31.9819 87.1102H26.0083V81.1283H31.9819V87.1102Z" fill="#F8F8F8"/>
<path d="M44.514 79.7358H37.1397C36.7524 79.7358 36.4393 80.049 36.4393 80.4362V87.8187C36.4393 88.206 36.7524 88.5191 37.1397 88.5191H44.514C44.9012 88.5191 45.2143 88.206 45.2143 87.8187V80.4362C45.2143 80.049 44.9012 79.7358 44.514 79.7358ZM43.8136 87.1102H37.84V81.1283H43.8136V87.1102Z" fill="#F8F8F8"/>
<path d="M32.6823 90.134H25.308C24.9207 90.134 24.6076 90.4472 24.6076 90.8344V98.2169C24.6076 98.6042 24.9207 98.9173 25.308 98.9173H32.6823C33.0695 98.9173 33.3826 98.6042 33.3826 98.2169V90.8344C33.3826 90.4472 33.0695 90.134 32.6823 90.134ZM31.9819 97.5166H26.0083V91.5347H31.9819V97.5166Z" fill="#F8F8F8"/>
<path d="M44.514 90.134H37.1397C36.7524 90.134 36.4393 90.4472 36.4393 90.8344V98.2169C36.4393 98.6042 36.7524 98.9173 37.1397 98.9173H44.514C44.9012 98.9173 45.2143 98.6042 45.2143 98.2169V90.8344C45.2143 90.4472 44.9012 90.134 44.514 90.134ZM43.8136 97.5166H37.84V91.5347H43.8136V97.5166Z" fill="#F8F8F8"/>
<path d="M91.0502 78.9448H83.6676C83.2804 78.9448 82.9673 79.2579 82.9673 79.6452V87.0277C82.9673 87.415 83.2804 87.7281 83.6676 87.7281H91.0502C91.4375 87.7281 91.7505 87.415 91.7505 87.0277V79.6452C91.7505 79.2579 91.4375 78.9448 91.0502 78.9448ZM90.3498 86.3191H84.368V80.3373H90.3498V86.3191Z" fill="#F8F8F8"/>
<path d="M102.882 78.9448H95.5078C95.1206 78.9448 94.8075 79.2579 94.8075 79.6452V87.0277C94.8075 87.415 95.1206 87.7281 95.5078 87.7281H102.882C103.269 87.7281 103.583 87.415 103.583 87.0277V79.6452C103.583 79.2579 103.269 78.9448 102.882 78.9448ZM102.182 86.3191H96.2082V80.3373H102.182V86.3191Z" fill="#F8F8F8"/>
<path d="M91.0502 90.134H83.6676C83.2804 90.134 82.9673 90.4472 82.9673 90.8344V98.2169C82.9673 98.6042 83.2804 98.9173 83.6676 98.9173H91.0502C91.4375 98.9173 91.7505 98.6042 91.7505 98.2169V90.8344C91.7505 90.4472 91.4375 90.134 91.0502 90.134ZM90.3498 97.5166H84.368V91.5347H90.3498V97.5166Z" fill="#F8F8F8"/>
<path d="M102.882 90.134H95.5078C95.1206 90.134 94.8075 90.4472 94.8075 90.8344V98.2169C94.8075 98.6042 95.1206 98.9173 95.5078 98.9173H102.882C103.269 98.9173 103.583 98.6042 103.583 98.2169V90.8344C103.583 90.4472 103.269 90.134 102.882 90.134ZM102.182 97.5166H96.2082V91.5347H102.182V97.5166Z" fill="#F8F8F8"/>
<path d="M62.7645 63.1992H55.382C54.9947 63.1992 54.6816 63.5123 54.6816 63.8996V71.2739C54.6816 71.6611 54.9947 71.9742 55.382 71.9742H62.7645C63.1518 71.9742 63.4649 71.6611 63.4649 71.2739V63.8996C63.4649 63.5123 63.1518 63.1992 62.7645 63.1992ZM62.0642 70.5735H56.0823V64.5999H62.0642V70.5735Z" fill="#F8F8F8"/>
<path d="M74.5961 63.1992H67.2217C66.8345 63.1992 66.5214 63.5123 66.5214 63.8996V71.2739C66.5214 71.6611 66.8345 71.9742 67.2217 71.9742H74.5961C74.9833 71.9742 75.2964 71.6611 75.2964 71.2739V63.8996C75.2964 63.5123 74.9833 63.1992 74.5961 63.1992ZM73.8957 70.5735H67.9221V64.5999H73.8957V70.5735Z" fill="#F8F8F8"/>
<path d="M62.7645 74.3967H55.382C54.9947 74.3967 54.6816 74.7098 54.6816 75.0971V82.4714C54.6816 82.8586 54.9947 83.1718 55.382 83.1718H62.7645C63.1518 83.1718 63.4649 82.8586 63.4649 82.4714V75.0971C63.4649 74.7098 63.1518 74.3967 62.7645 74.3967ZM62.0642 81.771H56.0823V75.7974H62.0642V81.771Z" fill="#F8F8F8"/>
<path d="M74.5961 74.3967H67.2217C66.8345 74.3967 66.5214 74.7098 66.5214 75.0971V82.4714C66.5214 82.8586 66.8345 83.1718 67.2217 83.1718H74.5961C74.9833 83.1718 75.2964 82.8586 75.2964 82.4714V75.0971C75.2964 74.7098 74.9833 74.3967 74.5961 74.3967ZM73.8957 81.771H67.9221V75.7974H73.8957V81.771Z" fill="#F8F8F8"/>
</svg>
