<svg width="129" height="128" viewBox="0 0 129 128" fill="none" xmlns="http://www.w3.org/2000/svg">
<path d="M99.8841 101.4L88.7267 66.4963C88.8168 66.1902 88.8798 65.875 88.8978 65.5598C91.2482 64.4432 92.0946 60.3729 93.1752 58.4278C93.6975 57.2391 93.5715 55.9334 92.9861 54.8798C93.9497 54.1503 94.58 52.9977 94.58 51.701C94.49 49.1615 95.1474 45.2533 93.3914 43.3442C94.3009 40.9128 92.2117 37.5089 91.3472 35.1496C90.924 34.0419 89.9874 33.2405 88.8978 32.8713C88.9789 31.7456 88.6097 30.602 87.7542 29.7465C85.9442 28.0535 83.7109 24.9468 81.2075 24.6946C80.442 22.4163 75.8494 21.5248 74.1294 20.4532C72.9858 19.9219 71.653 20.048 70.5724 20.6333C69.843 19.6788 68.6994 19.0484 67.4026 19.0484C64.8632 19.1385 60.955 18.4811 59.0459 20.2371C56.6145 19.3276 53.2106 21.4168 50.8512 22.2812C49.7436 22.7315 48.9692 23.623 48.5999 24.6676C45.8984 24.5596 43.4851 27.9545 41.585 29.7375C40.8466 30.4759 40.4683 31.4394 40.4233 32.412C38.127 33.1414 37.2175 37.779 36.1549 39.508C35.6236 40.6517 35.7497 41.9844 36.335 43.0651C35.3804 43.7945 34.7501 44.9381 34.7501 46.2348C34.8402 48.7923 34.1738 52.7275 35.9658 54.6186C35.9568 54.6276 35.9478 54.6456 35.9478 54.6546C34.7051 56.7888 37.4876 60.7691 37.9919 62.7862C38.4152 63.8669 39.3517 64.7043 40.4413 65.0736C40.4053 65.6229 40.4774 66.1812 40.6575 66.7125L29.5632 101.409C29.374 101.995 29.5721 102.643 30.0584 103.021C30.5447 103.399 31.2201 103.435 31.7424 103.111L43.2689 95.9071C43.9443 96.5734 48.5909 110.306 50.1758 109.478C50.8152 109.478 51.3825 109.064 51.5806 108.451C51.5806 108.451 57.3529 90.3959 61.099 78.6803C63.0892 79.1395 65.6106 78.8334 67.4116 78.8964C67.7538 78.8964 68.087 78.8514 68.4112 78.7613C71.9682 89.8826 77.9026 108.442 77.9026 108.442C78.0917 109.055 78.668 109.469 79.3074 109.469C80.9013 110.279 85.5119 96.6275 86.2143 95.8981L97.7408 103.102C98.2631 103.426 98.9385 103.39 99.4248 103.012C99.8751 102.634 100.073 101.985 99.8841 101.4ZM83.6208 64.5873L85.2598 65.2987L85.638 66.4783L81.9729 70.1434C81.6397 70.4856 81.1354 70.5937 80.6942 70.4766C80.6852 70.4586 80.6852 70.4316 80.6762 70.4136C80.6762 70.4136 80.379 69.6932 79.8657 68.4325C81.2975 67.2978 82.5402 66.0011 83.6208 64.5873ZM90.7889 57.005C90.7799 57.041 90.7799 57.068 90.7799 57.104C90.7619 57.1851 90.7349 57.2661 90.6988 57.3471L88.5196 62.354C88.4746 62.4621 88.4115 62.5521 88.3395 62.6422C88.3305 62.6602 88.3125 62.6782 88.2945 62.6872C88.1234 62.8853 87.8802 63.0204 87.6281 63.0924L87.2319 61.8497C87.0428 61.2644 86.5205 60.8772 85.9352 60.8322C86.8897 58.9141 87.5921 56.8879 88.0333 54.7897C89.213 55.303 89.9244 55.6002 90.0055 55.6182C90.0685 55.6452 90.1225 55.6812 90.1766 55.7172C90.2396 55.7533 90.3026 55.8073 90.3567 55.8523L90.3657 55.8613C90.4197 55.9063 90.4647 55.9604 90.5097 56.0144C90.5187 56.0234 90.5277 56.0324 90.5277 56.0414C90.5638 56.0955 90.5998 56.1405 90.6268 56.2035C90.6358 56.2215 90.6448 56.2395 90.6538 56.2575C90.6808 56.3116 90.6989 56.3566 90.7169 56.4106C90.7259 56.4377 90.7349 56.4647 90.7439 56.4917C90.7529 56.5367 90.7709 56.5817 90.7799 56.6358C90.7889 56.6718 90.7889 56.7078 90.7889 56.7438C90.7889 56.7888 90.7979 56.8249 90.7979 56.8699C90.8069 56.9059 90.7979 56.96 90.7889 57.005ZM91.4823 45.2983C91.7254 45.5415 91.8785 45.8656 91.8785 46.2348V51.701C91.8785 52.3583 91.3922 52.8986 90.7529 52.9977L88.4746 51.9981C88.6547 50.1881 88.6547 48.3601 88.4746 46.541C90.1856 45.8386 91.1941 45.4334 91.1941 45.4334C91.2932 45.3884 91.3923 45.3434 91.4823 45.2983ZM88.4025 35.6178C88.4116 35.6268 88.4296 35.6359 88.4386 35.6449C88.5106 35.6989 88.5736 35.7619 88.6277 35.834C88.6457 35.852 88.6637 35.87 88.6817 35.897C88.7447 35.978 88.7988 36.0771 88.8348 36.1762L90.897 41.237C90.933 41.3271 90.96 41.4081 90.969 41.4982C90.969 41.5162 90.969 41.5252 90.969 41.5432C90.978 41.6152 90.987 41.6963 90.987 41.7683C90.987 41.7773 90.987 41.7773 90.987 41.7863C90.969 42.2906 90.6628 42.7589 90.1675 42.957L88.0424 43.8215C87.493 41.192 86.5385 38.6435 85.1787 36.3292C86.3314 35.852 87.0248 35.5368 87.1058 35.4647C87.5471 35.2576 88.0423 35.3477 88.4025 35.6178ZM81.1985 27.9094C81.2615 27.7564 81.2975 27.6033 81.3516 27.4502C82.4952 27.9005 85.2958 31.2684 85.8451 31.6466C86.1873 31.9708 86.2953 32.475 86.1783 32.9253C86.1603 32.9343 86.1333 32.9433 86.1152 32.9523L83.6208 33.9699C82.6123 32.6461 81.4596 31.4305 80.1448 30.3498L81.1985 27.9094ZM71.3018 23.596C71.3289 23.542 71.3649 23.4969 71.3919 23.4429C71.4549 23.3439 71.518 23.2628 71.599 23.1818C71.599 23.1818 71.599 23.1818 71.608 23.1728C71.6801 23.1007 71.7611 23.0377 71.8602 22.9836C71.8872 22.9656 71.9232 22.9566 71.9502 22.9386C72.0223 22.9026 72.0853 22.8666 72.1573 22.8486C72.2654 22.8126 72.3825 22.7945 72.5085 22.7945C72.6886 22.6415 77.7675 25.0098 78.0377 25.0909C78.1457 25.1359 78.2358 25.1989 78.3168 25.262C78.3348 25.271 78.3438 25.289 78.3619 25.298C78.5239 25.433 78.659 25.6132 78.7311 25.8113C78.8391 25.9553 78.4969 26.9999 77.8486 28.6839C75.6873 27.3241 73.2019 26.2795 70.3833 25.6582L71.3018 23.596ZM61.9275 21.741H67.3936C68.051 21.741 68.5913 22.2272 68.6903 22.8666L67.6638 25.2169C66.7092 25.1089 65.7277 25.0368 64.7191 25.0188C63.8726 25.0368 63.0532 25.0909 62.2517 25.1719C61.5493 23.4429 61.1351 22.4253 61.1351 22.4253C61.09 22.3263 61.045 22.2272 60.991 22.1372C61.2251 21.8941 61.5583 21.741 61.9275 21.741ZM51.0854 25.8653C51.0944 25.7662 51.1214 25.6762 51.1484 25.5771C51.1574 25.5591 51.1574 25.5411 51.1664 25.5231C51.1934 25.442 51.2295 25.37 51.2655 25.289C51.2835 25.262 51.2925 25.2259 51.3105 25.1989C51.3555 25.1359 51.4096 25.0819 51.4636 25.0278C51.4906 25.0008 51.5086 24.9738 51.5356 24.9468C51.6257 24.8747 51.7337 24.8207 51.8598 24.7847C51.8598 24.7847 56.8216 22.7675 56.9207 22.7225C56.9927 22.6865 57.0738 22.6685 57.1548 22.6505C57.1728 22.6505 57.1818 22.6505 57.1998 22.6505C57.2719 22.6415 57.3439 22.6325 57.416 22.6325C57.425 22.6325 57.434 22.6325 57.434 22.6325C57.9112 22.6505 58.4335 22.9206 58.6226 23.4069C58.6226 23.4069 58.9468 24.2083 59.5051 25.5771C56.6595 26.1534 54.1381 27.144 51.9409 28.4588C51.4816 27.3241 51.1934 26.6127 51.1484 26.5046C51.0944 26.5587 51.0403 26.2435 51.0854 25.8653ZM64.7101 27.5763C84.8635 27.9365 90.7799 49.2065 82.4502 61.8407C82.198 62.2189 81.9369 62.5881 81.6667 62.9483C81.6397 62.9753 81.6217 63.0114 81.5947 63.0384C81.0454 63.7588 80.442 64.4342 79.7937 65.0736C79.7396 65.1276 79.6766 65.1906 79.6226 65.2447C79.2984 65.5508 78.9742 65.857 78.632 66.1452C76.0475 68.3064 72.7967 69.8822 68.8705 70.5846C67.9159 70.7557 66.9254 70.8728 65.8988 70.9359C65.5116 70.9629 65.1243 70.9809 64.7191 70.9809C64.3229 70.9719 63.9357 70.9539 63.5574 70.9359C62.5219 70.8728 61.5313 70.7557 60.5857 70.5846C56.6505 69.8822 53.3907 68.3064 50.8062 66.1361C50.464 65.848 50.1308 65.5418 49.8066 65.2356C49.7526 65.1816 49.6986 65.1276 49.6445 65.0736C48.9962 64.4342 48.3928 63.7498 47.8345 63.0294C47.8075 62.9934 47.7895 62.9664 47.7625 62.9303C47.4923 62.5701 47.2222 62.2009 46.979 61.8227C38.6493 49.1975 44.5567 27.9365 64.7101 27.5763ZM78.2268 72.0705C78.2178 72.1606 78.1908 72.2596 78.1637 72.3497C78.1547 72.3677 78.1547 72.3857 78.1547 72.4037C78.1277 72.4847 78.0917 72.5568 78.0557 72.6288C78.0377 72.6558 78.0287 72.6919 78.0106 72.7189C77.9746 72.7819 77.9206 72.836 77.8666 72.89C77.8395 72.917 77.8215 72.944 77.7945 72.971C77.7045 73.0431 77.6054 73.0971 77.4884 73.1331C77.4523 73.1511 72.5355 75.1503 72.3915 75.2133C72.3194 75.2493 72.2474 75.2763 72.1663 75.2853C72.1483 75.2853 72.1393 75.2854 72.1213 75.2944C72.0493 75.3034 71.9772 75.3123 71.9052 75.3123C71.8962 75.3123 71.8872 75.3123 71.8872 75.3123C71.4099 75.2943 70.8696 75.0152 70.6985 74.5379C70.6985 74.5379 70.4644 73.9616 70.0591 72.962C72.9048 72.3767 75.4172 71.3681 77.6054 70.0263C77.9386 70.8368 78.1367 71.3321 78.1727 71.4222C78.2178 71.3591 78.2808 71.6833 78.2268 72.0705ZM50.5901 71.0979L51.2204 69.6481C53.3546 71.0439 55.8221 72.1155 58.6046 72.7819C58.2264 73.6824 58.0103 74.2317 58.0013 74.3308C57.9743 74.3938 57.9383 74.4479 57.9022 74.5019C57.8662 74.5649 57.8122 74.628 57.7672 74.682C57.7672 74.691 57.7582 74.691 57.7582 74.7C57.7131 74.754 57.6591 74.7991 57.6051 74.8441C57.5961 74.8531 57.587 74.8621 57.578 74.8711C57.524 74.9071 57.479 74.9432 57.416 74.9702C57.3979 74.9792 57.3799 74.9882 57.3619 74.9972C57.3079 75.0242 57.2629 75.0422 57.2088 75.0602C57.1818 75.0692 57.1548 75.0782 57.1278 75.0872C57.0828 75.0962 57.0377 75.1143 56.9837 75.1233C56.9477 75.1323 56.9117 75.1323 56.8667 75.1323C56.8216 75.1323 56.7856 75.1413 56.7406 75.1413C56.6865 75.1413 56.6415 75.1323 56.5875 75.1233C56.5605 75.1143 56.5245 75.1142 56.4974 75.1142C56.4164 75.0962 56.3353 75.0692 56.2543 75.0332L51.2474 72.854C51.1394 72.8089 51.0494 72.7459 50.9593 72.6738C50.9413 72.6648 50.9323 72.6468 50.9143 72.6378C50.8332 72.5658 50.7612 72.4847 50.6982 72.4037C50.464 72.0075 50.401 71.5302 50.5901 71.0979ZM49.0052 67.9822L48.1137 70.0174C48.0507 70.1705 48.0056 70.3325 47.9606 70.4946C47.7265 70.4406 47.5013 70.3325 47.3302 70.1524L43.7642 66.5864L44.4306 64.4882C44.5927 64.4252 44.7638 64.3531 44.9439 64.2811L45.7453 64.5423C46.7089 65.776 47.7895 66.9376 49.0052 67.9822ZM43.476 31.6466C44.0974 31.2684 47.4023 27.126 48.2668 27.3962C48.3208 27.3782 48.4649 27.4592 48.672 27.6033L49.6626 30.0347C48.3388 31.0793 47.1591 32.2499 46.1326 33.5286L43.6021 32.421C43.449 32.358 43.2869 32.313 43.1248 32.2679C43.1879 32.0428 43.2959 31.8267 43.476 31.6466ZM38.5232 40.9128C38.5232 40.8858 38.5322 40.8498 38.5322 40.8228C38.5502 40.7417 38.5773 40.6607 38.6133 40.5887L40.8015 35.5818C40.8465 35.4647 40.9186 35.3657 40.9906 35.2756C41.0717 35.1856 41.1617 35.1045 41.2608 35.0325C41.4769 34.8794 41.7381 34.7894 42.0082 34.7894C42.1073 34.7804 43.0348 35.1586 44.5476 35.7889C43.1158 38.0942 42.0983 40.6337 41.4949 43.2722L39.2977 42.3176C39.1626 42.2636 39.0545 42.1825 38.9465 42.0925C38.9375 42.0925 38.9375 42.0835 38.9285 42.0835C38.8744 42.0385 38.8384 41.9844 38.7934 41.9304C38.7844 41.9214 38.7754 41.9124 38.7664 41.8944C38.7304 41.8403 38.6943 41.7953 38.6673 41.7413C38.6583 41.7233 38.6493 41.7053 38.6403 41.6783C38.6133 41.6332 38.5953 41.5792 38.5773 41.5252C38.5683 41.4982 38.5592 41.4622 38.5502 41.4351C38.5412 41.3901 38.5232 41.3451 38.5232 41.3001C38.5142 41.264 38.5142 41.219 38.5142 41.183C38.5142 41.147 38.5052 41.1019 38.5052 41.0659C38.5052 41.0119 38.5142 40.9669 38.5232 40.9128ZM37.8389 52.6465C37.5867 52.4033 37.4336 52.0702 37.4336 51.701V46.2348C37.4336 45.5775 37.9199 45.0372 38.5592 44.9381L41.0086 46.0097C40.7925 47.7837 40.7565 49.5848 40.8916 51.3678L38.127 52.4934C38.019 52.5384 37.9379 52.5925 37.8389 52.6465ZM41.531 62.5701C41.3058 62.5431 41.0987 62.4621 40.9186 62.327C40.9096 62.318 40.9006 62.309 40.8826 62.3C40.8105 62.2459 40.7475 62.1829 40.6935 62.1109C40.6754 62.0929 40.6574 62.0748 40.6394 62.0478C40.5764 61.9578 40.5224 61.8677 40.4773 61.7687C40.3693 61.0483 37.8479 56.3926 38.4242 55.6992C38.4242 55.6902 38.4332 55.6812 38.4422 55.6722C38.5322 55.4741 39.5588 54.9338 41.2608 54.1594C41.693 56.4737 42.4495 58.7159 43.4941 60.8231C42.9087 60.8682 42.3864 61.2554 42.1973 61.8407L41.9722 62.5431C41.8191 62.5701 41.675 62.5881 41.531 62.5701ZM49.9417 103.832L45.2681 93.1515C45.0429 92.6202 44.4936 92.269 43.9173 92.269C43.6562 91.8367 33.9846 98.3564 33.5704 98.4735L42.8457 69.4501C44.3676 71.089 46.3487 73.3583 48.1317 73.2232C48.5369 74.1507 49.2573 74.8891 50.1939 75.2944C51.3555 75.6005 55.5699 78.0769 56.7946 77.8158C57.3439 77.8158 57.8752 77.6897 58.3705 77.4826L49.9417 103.832ZM67.3846 76.1859H61.9185C61.9005 76.1859 61.8825 76.1858 61.8645 76.1768C62.1797 75.1773 62.4768 74.2588 62.747 73.4213C63.3864 73.4753 64.0347 73.5203 64.7011 73.5293C65.3765 73.5203 66.0248 73.4753 66.6732 73.4213C66.9254 74.2047 67.2225 75.1322 67.5467 76.1678C67.5017 76.1768 67.4477 76.1859 67.3846 76.1859ZM79.4965 103.832L71.2118 77.9328C71.4369 77.9779 71.671 78.0049 71.9052 78.0049C73.0668 78.221 77.3263 75.8797 78.4699 75.6456C79.4605 75.2403 80.2349 74.4749 80.6491 73.4843C80.6852 73.3943 80.7032 73.2952 80.7392 73.1962C80.8382 73.2052 80.9373 73.2232 81.0364 73.2232C82.9184 73.4933 84.9536 71.0079 86.5385 69.324L95.8588 98.4645C81.8468 89.9186 86.2953 89.4324 79.4965 103.832Z" fill="#1E4F80"/>
<path d="M51.1394 43.2903C52.7514 42.8941 52.8054 38.9679 57.5691 36.3924C58.0013 36.1673 58.1634 35.636 57.9383 35.2037C56.1283 32.7183 47.6815 43.5875 51.1394 43.2903Z" fill="#1E4F80"/>
<path d="M64.7099 68.9818C90.5996 68.5226 90.5996 30.0437 64.7099 29.5845C38.8202 30.0437 38.8202 68.5136 64.7099 68.9818ZM64.7099 31.1514C88.5374 31.5746 88.5374 66.9917 64.7099 67.415C40.8824 66.9917 40.8824 31.5746 64.7099 31.1514Z" fill="#1E4F80"/>
</svg>
