<svg width="128" height="128" viewBox="0 0 128 128" fill="none" xmlns="http://www.w3.org/2000/svg">
<path d="M77.7923 104.264C77.3792 103.871 35.27 105.024 35.3566 103.858C35.2633 102.692 77.3858 103.845 77.7923 103.452C78.3054 103.445 78.3321 104.278 77.7923 104.264Z" fill="#1E4F80"/>
<path fill-rule="evenodd" clip-rule="evenodd" d="M36.2165 103.858C36.4704 103.826 36.7842 103.797 37.1542 103.771C38.2907 103.691 39.9244 103.639 41.8946 103.608C45.8335 103.546 51.1 103.568 56.3849 103.615C59.1528 103.639 61.9339 103.67 64.5295 103.7C66.8792 103.726 69.0768 103.75 70.975 103.767C72.9774 103.784 74.6575 103.792 75.8502 103.784C76.4461 103.78 76.9228 103.771 77.2579 103.758C77.4249 103.751 77.5607 103.743 77.6601 103.733C77.7091 103.728 77.7548 103.722 77.7932 103.714C77.8049 103.711 77.8182 103.708 77.832 103.704C77.8628 103.71 77.8815 103.725 77.8952 103.741C77.9183 103.768 77.9364 103.812 77.9372 103.865C77.9381 103.917 77.9215 103.957 77.9026 103.979C77.8919 103.992 77.8737 104.007 77.8357 104.013C77.8204 104.008 77.8056 104.005 77.7927 104.002C77.7543 103.994 77.7085 103.988 77.6595 103.983C77.56 103.973 77.424 103.965 77.2569 103.958C76.9215 103.945 76.4446 103.936 75.8485 103.932C74.6556 103.924 72.9755 103.932 70.9731 103.949C69.0748 103.965 66.8771 103.99 64.5275 104.016C61.9325 104.046 59.1521 104.077 56.3849 104.101C51.1009 104.148 45.8352 104.17 41.8965 104.108C39.9264 104.077 38.2927 104.025 37.1559 103.945C36.7852 103.919 36.4708 103.89 36.2165 103.858ZM77.663 103.229C77.6489 103.231 77.6311 103.233 77.6091 103.235C77.5252 103.244 77.4015 103.252 77.2376 103.258C76.9111 103.272 76.4412 103.28 75.8467 103.284C74.6583 103.292 72.9816 103.284 70.9793 103.267C69.0718 103.25 66.8786 103.226 64.5337 103.2C61.9438 103.171 59.1688 103.139 56.3893 103.115C51.1043 103.068 45.8323 103.046 41.8868 103.108C39.9147 103.139 38.2698 103.191 37.119 103.272C36.5451 103.313 36.0859 103.361 35.7682 103.42C35.6118 103.448 35.4751 103.482 35.373 103.525C35.3232 103.545 35.2643 103.575 35.2148 103.62C35.1664 103.664 35.1044 103.745 35.1065 103.859C35.1051 103.972 35.1673 104.053 35.2156 104.096C35.2651 104.141 35.3239 104.171 35.3737 104.192C35.4759 104.234 35.6127 104.268 35.7693 104.296C36.0872 104.355 36.5466 104.403 37.1206 104.444C38.2717 104.525 39.9167 104.577 41.8886 104.608C45.834 104.67 51.1052 104.648 56.3893 104.601C59.1681 104.577 61.9423 104.545 64.5316 104.516C66.8765 104.49 69.0698 104.466 70.9775 104.449C72.9796 104.432 74.6563 104.424 75.845 104.432C76.4397 104.436 76.9098 104.444 77.2366 104.458C77.4006 104.464 77.5245 104.472 77.6086 104.481C77.6313 104.483 77.6496 104.485 77.6639 104.487L77.6898 104.512L77.7862 104.514C77.9918 104.519 78.1648 104.441 78.2819 104.305C78.3937 104.175 78.4396 104.01 78.4372 103.856C78.4347 103.703 78.3836 103.542 78.2742 103.415C78.1602 103.282 77.9921 103.199 77.7891 103.202L77.6899 103.203L77.663 103.229Z" fill="#1E4F80"/>
<path d="M77.7923 97.6276C77.3792 97.2344 35.27 98.3872 35.3566 97.221C35.2633 96.0548 77.3858 97.2077 77.7923 96.8145C78.3054 96.8079 78.3321 97.6342 77.7923 97.6276Z" fill="#1E4F80"/>
<path fill-rule="evenodd" clip-rule="evenodd" d="M36.2165 97.2209C36.4704 97.1893 36.7842 97.1604 37.1542 97.1342C38.2907 97.0539 39.9244 97.0018 41.8946 96.9708C45.8335 96.9088 51.1 96.9312 56.3849 96.9779C59.1528 97.0023 61.9339 97.0335 64.5295 97.0626C66.8792 97.0889 69.0768 97.1135 70.975 97.1299C72.9774 97.1472 74.6575 97.1554 75.8502 97.1471C76.4461 97.1429 76.9228 97.1345 77.2579 97.1209C77.4249 97.1141 77.5607 97.1059 77.6601 97.0957C77.7091 97.0907 77.7548 97.0846 77.7932 97.0768C77.805 97.0744 77.8183 97.0713 77.8322 97.0675C77.8634 97.0734 77.8822 97.0878 77.8958 97.1034C77.9186 97.1297 77.9364 97.1733 77.9372 97.2251C77.9381 97.277 77.9217 97.3171 77.9023 97.3399C77.891 97.3531 77.872 97.369 77.8336 97.3751C77.819 97.371 77.805 97.3678 77.7927 97.3653C77.7543 97.3575 77.7085 97.3514 77.6595 97.3464C77.56 97.3362 77.424 97.328 77.2569 97.3212C76.9215 97.3076 76.4446 97.2992 75.8485 97.295C74.6556 97.2866 72.9755 97.2949 70.9731 97.3122C69.0748 97.3286 66.8771 97.3532 64.5275 97.3795C61.9325 97.4086 59.1521 97.4398 56.3849 97.4642C51.1009 97.5108 45.8352 97.5333 41.8965 97.4713C39.9264 97.4403 38.2927 97.3882 37.1559 97.3078C36.7852 97.2816 36.4707 97.2526 36.2165 97.2209ZM77.663 96.5919C77.6489 96.5939 77.6311 96.596 77.6091 96.5983C77.5252 96.6069 77.4015 96.6146 77.2376 96.6213C76.9111 96.6346 76.4412 96.6429 75.8467 96.6471C74.6583 96.6554 72.9816 96.6472 70.9793 96.6299C69.0718 96.6135 66.8786 96.5889 64.5337 96.5626C61.9438 96.5336 59.1688 96.5024 56.3893 96.4779C51.1043 96.4313 45.8323 96.4087 41.8868 96.4709C39.9147 96.5019 38.2698 96.5541 37.119 96.6355C36.5451 96.6761 36.0859 96.7244 35.7682 96.7827C35.6118 96.8114 35.4751 96.8451 35.373 96.8876C35.3232 96.9083 35.2643 96.938 35.2148 96.983C35.1664 97.027 35.1044 97.108 35.1065 97.2217C35.1051 97.3353 35.1673 97.4159 35.2156 97.4595C35.2651 97.5042 35.3239 97.5339 35.3737 97.5546C35.4759 97.597 35.6127 97.6306 35.7693 97.6594C36.0872 97.7177 36.5466 97.766 37.1206 97.8066C38.2717 97.8879 39.9167 97.9402 41.8886 97.9712C45.834 98.0333 51.1052 98.0108 56.3893 97.9642C59.1681 97.9396 61.9423 97.9085 64.5316 97.8795C66.8765 97.8532 69.0698 97.8286 70.9775 97.8122C72.9796 97.7949 74.6563 97.7867 75.845 97.795C76.4397 97.7992 76.9098 97.8075 77.2366 97.8208C77.4006 97.8275 77.5245 97.8352 77.6086 97.8438C77.6313 97.8461 77.6496 97.8484 77.6639 97.8504L77.6911 97.8763L77.7893 97.8775C77.9942 97.8801 78.1659 97.8008 78.2822 97.6649C78.3935 97.5348 78.4396 97.3701 78.4372 97.217C78.4347 97.0639 78.3834 96.9026 78.2737 96.776C78.1594 96.6441 77.9913 96.5619 77.7891 96.5646L77.6899 96.5658L77.663 96.5919Z" fill="#1E4F80"/>
<path d="M52.843 100.739H35.7634C35.5368 100.739 35.3569 100.559 35.3569 100.333C35.3569 100.106 35.5368 99.9263 35.7634 99.9263H52.843C53.3694 99.9196 53.3761 100.753 52.843 100.739Z" fill="#1E4F80"/>
<path fill-rule="evenodd" clip-rule="evenodd" d="M52.9507 100.216C52.9334 100.196 52.9052 100.176 52.8462 100.176L52.843 100.176H35.7634C35.675 100.176 35.6069 100.244 35.6069 100.333C35.6069 100.421 35.6749 100.489 35.7634 100.489H52.8493C52.9109 100.491 52.9379 100.471 52.9532 100.453C52.9735 100.43 52.9905 100.389 52.9903 100.336C52.9901 100.284 52.9727 100.241 52.9507 100.216ZM52.8402 100.989C53.0436 100.993 53.2144 100.915 53.3307 100.781C53.4426 100.652 53.491 100.488 53.4903 100.334C53.4897 100.181 53.44 100.018 53.3294 99.8892C53.2144 99.7557 53.045 99.6742 52.8416 99.6763H52.843V99.9263L52.8398 99.6763C52.8404 99.6763 52.841 99.6763 52.8416 99.6763" fill="#1E4F80"/>
<path d="M74.7536 100.739H57.6741C57.4475 100.739 57.2676 100.559 57.2676 100.333C57.2676 100.106 57.4475 99.9263 57.6741 99.9263H74.7536C75.2734 99.9196 75.2868 100.753 74.7536 100.739Z" fill="#1E4F80"/>
<path fill-rule="evenodd" clip-rule="evenodd" d="M74.8582 100.215C74.8406 100.195 74.8131 100.176 74.7568 100.176L74.7536 100.176H57.6741C57.5856 100.176 57.5176 100.244 57.5176 100.333C57.5176 100.421 57.5856 100.489 57.6741 100.489H74.7599C74.8215 100.491 74.8477 100.471 74.8623 100.454C74.882 100.431 74.8989 100.39 74.8985 100.337C74.8981 100.285 74.8804 100.241 74.8582 100.215ZM74.7508 100.989C74.9543 100.993 75.1251 100.915 75.241 100.78C75.3525 100.651 75.3997 100.486 75.3985 100.333C75.3972 100.18 75.3474 100.018 75.2376 99.8896C75.1235 99.7566 74.955 99.6742 74.7522 99.6763H74.7536V99.9263L74.7504 99.6763C74.751 99.6763 74.7516 99.6763 74.7522 99.6763" fill="#1E4F80"/>
<path d="M96.4444 100.739H78.5652C78.3386 100.739 78.1587 100.559 78.1587 100.333C78.1587 100.106 78.3386 99.9263 78.5652 99.9263H96.4444C96.9709 99.9196 96.9775 100.753 96.4444 100.739Z" fill="#1E4F80"/>
<path fill-rule="evenodd" clip-rule="evenodd" d="M96.5521 100.216C96.5348 100.196 96.5066 100.176 96.4476 100.176L96.4444 100.176H78.5652C78.4767 100.176 78.4087 100.244 78.4087 100.333C78.4087 100.421 78.4767 100.489 78.5652 100.489H96.4507C96.5124 100.491 96.5393 100.471 96.5546 100.453C96.575 100.43 96.592 100.389 96.5918 100.336C96.5916 100.284 96.5742 100.241 96.5521 100.216ZM96.4416 100.989C96.645 100.993 96.8158 100.915 96.9321 100.781C97.044 100.652 97.0924 100.488 97.0918 100.334C97.0911 100.181 97.0415 100.018 96.9309 99.8892C96.8158 99.7557 96.6464 99.6742 96.443 99.6763H96.4444V99.9263L96.4413 99.6763C96.4419 99.6763 96.4424 99.6763 96.443 99.6763" fill="#1E4F80"/>
<path d="M96.5907 97.6273H83.283C83.0564 97.6273 82.8765 97.4473 82.8765 97.2207C82.8765 96.9942 83.0564 96.8142 83.283 96.8142H96.5841C97.1172 96.8076 97.1239 97.6339 96.5907 97.6273Z" fill="#1E4F80"/>
<path fill-rule="evenodd" clip-rule="evenodd" d="M96.6973 97.1046C96.6797 97.0845 96.6498 97.0634 96.5872 97.0642L96.5841 97.0643L83.283 97.0642C83.1945 97.0642 83.1265 97.1322 83.1265 97.2207C83.1265 97.3093 83.1945 97.3773 83.283 97.3773H96.5939C96.6563 97.378 96.6844 97.3571 96.7004 97.3387C96.7211 97.3148 96.7377 97.2738 96.7373 97.2228C96.7369 97.1718 96.7196 97.1298 96.6973 97.1046ZM96.5893 97.8773C96.7927 97.8794 96.963 97.7996 97.0788 97.6655C97.1901 97.5366 97.2385 97.3726 97.2373 97.2187C97.236 97.0648 97.185 96.9019 97.0727 96.7742C96.9562 96.6418 96.786 96.5622 96.5827 96.5642H96.5841V96.8142L96.581 96.5643C96.5816 96.5643 96.5821 96.5643 96.5827 96.5642" fill="#1E4F80"/>
<path d="M96.5907 104.151H83.283C83.0564 104.151 82.8765 103.971 82.8765 103.745C82.8765 103.518 83.0564 103.338 83.283 103.338H96.5841C97.1172 103.325 97.1239 104.158 96.5907 104.151Z" fill="#1E4F80"/>
<path fill-rule="evenodd" clip-rule="evenodd" d="M96.6977 103.626C96.6808 103.607 96.6521 103.587 96.5904 103.588L96.5841 103.588L83.283 103.588C83.1945 103.588 83.1265 103.656 83.1265 103.745C83.1265 103.833 83.1945 103.901 83.283 103.901H96.5939C96.6556 103.902 96.6836 103.881 96.6998 103.862C96.7209 103.838 96.7377 103.796 96.7373 103.744C96.7369 103.693 96.7194 103.651 96.6977 103.626ZM96.5893 104.401C96.7934 104.403 96.9638 104.323 97.0793 104.188C97.1903 104.059 97.2385 103.894 97.2373 103.74C97.236 103.586 97.1852 103.423 97.0724 103.295C96.9553 103.163 96.7846 103.084 96.5813 103.088H83.283C82.9183 103.088 82.6265 103.38 82.6265 103.745C82.6265 104.109 82.9183 104.401 83.283 104.401H96.5893Z" fill="#1E4F80"/>
<path d="M72.5012 108.929L70.1355 106.79L67.8564 108.929V100.673H72.5012V108.929Z" fill="#1E4F80"/>
<path fill-rule="evenodd" clip-rule="evenodd" d="M67.6064 100.423H72.7512V109.492L70.1387 107.13L67.6064 109.507V100.423ZM68.1064 100.923V108.352L70.1324 106.45L72.2512 108.366V100.923H68.1064Z" fill="#1E4F80"/>
<path d="M96.771 105.977H38.8284C31.5381 105.844 31.5647 95.0217 38.8284 94.9018H96.771C98.1571 94.9018 99.2833 93.7756 99.2833 92.3895C99.2833 91.0034 98.1571 89.8772 96.771 89.8772H38.8284C33.0041 89.8772 28.2661 94.6152 28.2661 100.439C28.2661 106.264 33.0041 111.002 38.8284 111.002H96.771C100.09 110.942 100.05 106.03 96.771 105.977ZM96.771 109.676H38.8284C26.6801 109.456 26.7067 91.4166 38.8284 91.2033H96.771C97.4241 91.2033 97.9572 91.7364 97.9572 92.3895C97.9572 93.0425 97.4241 93.5757 96.771 93.5757H38.8284C35.0433 93.5757 31.9646 96.6544 31.9646 100.439C31.9646 104.225 35.0433 107.303 38.8284 107.303H96.771C98.3437 107.317 98.3037 109.662 96.771 109.676Z" fill="#1E4F80"/>
<path fill-rule="evenodd" clip-rule="evenodd" d="M28.0161 100.439C28.0161 94.4771 32.8661 89.6272 38.8284 89.6272H96.771C98.2952 89.6272 99.5333 90.8653 99.5333 92.3895C99.5333 93.9136 98.2952 95.1518 96.771 95.1518H38.8304C37.0827 95.1811 35.7876 95.8514 34.9265 96.8294C34.0612 97.812 33.6222 99.1194 33.6206 100.435C33.619 101.75 34.0548 103.058 34.9192 104.042C35.7794 105.022 37.0761 105.695 38.8307 105.727H96.7751C97.6623 105.742 98.3472 106.087 98.8085 106.611C99.266 107.131 99.4923 107.812 99.495 108.486C99.4977 109.16 99.2768 109.843 98.8201 110.364C98.3596 110.889 97.6719 111.235 96.7755 111.252L96.771 111.252H38.8284C32.8661 111.252 28.0161 106.402 28.0161 100.439ZM38.8284 90.1272C33.1422 90.1272 28.5161 94.7533 28.5161 100.439C28.5161 106.126 33.1422 110.752 38.8284 110.752H96.7687C97.5305 110.737 98.0816 110.448 98.4441 110.034C98.8108 109.616 98.9973 109.056 98.995 108.488C98.9927 107.92 98.8016 107.36 98.4332 106.942C98.069 106.528 97.52 106.24 96.7689 106.227H38.8238C36.9343 106.193 35.5013 105.463 34.5435 104.372C33.5894 103.286 33.1189 101.856 33.1206 100.434C33.1224 99.0123 33.5964 97.5833 34.5512 96.4989C35.5098 95.4102 36.9412 94.6829 38.8243 94.6518L38.8284 94.6517L96.771 94.6518C98.019 94.6518 99.0333 93.6375 99.0333 92.3895C99.0333 91.1414 98.019 90.1272 96.771 90.1272H38.8284ZM38.8284 90.9533H96.771C97.5621 90.9533 98.2072 91.5983 98.2072 92.3895C98.2072 93.1806 97.5621 93.8257 96.771 93.8257H38.8284C35.1814 93.8257 32.2146 96.7924 32.2146 100.439C32.2146 104.086 35.1814 107.053 38.8284 107.053H96.7731C97.2338 107.057 97.5954 107.235 97.8385 107.513C98.0774 107.788 98.1884 108.144 98.1855 108.492C98.1826 108.839 98.0656 109.194 97.8267 109.466C97.5838 109.743 97.2257 109.922 96.7732 109.926L96.771 109.926H38.8239C35.7199 109.869 33.376 108.672 31.8109 106.892C30.2496 105.115 29.4755 102.772 29.4772 100.437C29.4789 98.1015 30.2565 95.759 31.8185 93.9835C33.3843 92.2037 35.7265 91.0078 38.824 90.9533L38.8284 90.9533ZM38.8306 91.4533C35.8683 91.506 33.6623 92.6448 32.1939 94.3138C30.7214 95.9875 29.9788 98.2085 29.9772 100.437C29.9755 102.666 30.7149 104.887 32.1865 106.561C33.654 108.231 35.8616 109.371 38.8307 109.426H96.7699C97.0831 109.423 97.3044 109.303 97.4508 109.136C97.6014 108.965 97.6835 108.73 97.6855 108.487C97.6876 108.245 97.6095 108.012 97.4615 107.842C97.3178 107.677 97.0951 107.556 96.77 107.553H38.8284C34.9052 107.553 31.7146 104.363 31.7146 100.439C31.7146 96.5163 34.9052 93.3257 38.8284 93.3257H96.771C97.286 93.3257 97.7072 92.9045 97.7072 92.3895C97.7072 91.8745 97.286 91.4533 96.771 91.4533H38.8306Z" fill="#1E4F80"/>
<path d="M69.8554 35.7396C70.2553 35.0799 69.3157 34.1069 68.596 34.3668C67.9763 34.5334 67.1166 34.5334 66.4769 34.74C64.4377 35.1732 64.3444 36.8392 66.4302 36.9324C67.5631 36.9258 69.349 36.5059 69.8554 35.7396ZM65.8505 35.9462C65.8438 35.9395 65.8371 35.9395 65.8371 35.9329C66.1303 35.7063 67.2499 35.3931 67.8296 35.3664C68.2028 35.3997 68.8559 35.0199 69.0225 35.3331C68.4494 35.9129 66.4902 36.2394 65.8505 35.9462Z" fill="#1E4F80"/>
<path fill-rule="evenodd" clip-rule="evenodd" d="M69.8279 34.5373C70.1389 34.869 70.3532 35.4006 70.0692 35.8691L70.0642 35.8774L70.064 35.8773C69.9078 36.1138 69.6648 36.3074 69.3904 36.465C69.1137 36.624 68.7894 36.7551 68.4517 36.8596C67.7774 37.0683 67.0234 37.1788 66.4317 37.1823L66.419 37.1824L66.4191 37.1821C65.8682 37.1574 65.4318 37.0282 65.1279 36.8164C64.8187 36.601 64.6445 36.2955 64.6569 35.9545C64.6689 35.6219 64.8564 35.309 65.1562 35.0598C65.455 34.8114 65.8789 34.613 66.4124 34.498C66.7552 34.3891 67.1477 34.336 67.5129 34.2903C67.5444 34.2863 67.5757 34.2824 67.6068 34.2785C67.9469 34.2362 68.2588 34.1974 68.5219 34.1277C69.0088 33.9583 69.5181 34.2068 69.8279 34.5373ZM69.4632 34.8792C69.2255 34.6257 68.9105 34.519 68.6809 34.6019L68.671 34.6054L68.6609 34.6081C68.3601 34.689 68.0095 34.7325 67.6746 34.774C67.6412 34.7781 67.608 34.7822 67.575 34.7864C67.1999 34.8334 66.8478 34.8828 66.5537 34.9778L66.5414 34.9818L66.5288 34.9844C66.0487 35.0864 65.7005 35.2576 65.4758 35.4443C65.2498 35.6323 65.162 35.8229 65.1565 35.9726C65.1514 36.1139 65.2175 36.2695 65.4137 36.4062C65.6144 36.546 65.9465 36.6596 66.4351 36.6823C66.9755 36.6783 67.6777 36.5757 68.3038 36.382C68.6175 36.2849 68.9054 36.167 69.1414 36.0314C69.3774 35.8959 69.5466 35.7512 69.644 35.6059C69.7568 35.4147 69.7003 35.1322 69.4632 34.8792ZM67.8266 35.6168C67.5833 35.63 67.2256 35.6982 66.8768 35.7922C67.0505 35.7786 67.2333 35.7545 67.4164 35.721C67.5701 35.6928 67.7224 35.6583 67.8682 35.6183C67.8543 35.6181 67.8404 35.6176 67.8266 35.6168ZM68.8429 34.962C68.9874 34.9762 69.1502 35.0408 69.2432 35.2156L69.3295 35.3779L69.2003 35.5087C69.0209 35.6901 68.7532 35.8348 68.4663 35.9473C68.1743 36.0619 67.8397 36.1518 67.5065 36.2128C67.1732 36.2738 66.8347 36.3072 66.534 36.3055C66.2408 36.3039 65.9553 36.2691 65.7463 36.1733L65.7055 36.1546L65.6873 36.1365C65.673 36.1254 65.6523 36.1069 65.6336 36.0803C65.6007 36.0333 65.5871 35.9808 65.5871 35.9327V35.81L65.6843 35.7349C65.7868 35.6557 65.9394 35.5832 66.0984 35.52C66.2634 35.4545 66.4574 35.3907 66.6579 35.334C67.0549 35.2218 67.5007 35.1312 67.8182 35.1166L67.835 35.1158L67.8519 35.1173C67.904 35.122 67.9826 35.1124 68.0954 35.0871C68.1494 35.0751 68.2054 35.0608 68.2654 35.0455L68.2675 35.045C68.3257 35.0302 68.3878 35.0144 68.4489 35.0007C68.5672 34.9742 68.7097 34.9488 68.8429 34.962ZM65.7121 36.1534C65.7123 36.1536 65.7122 36.1535 65.7118 36.1533L65.7121 36.1534Z" fill="#1E4F80"/>
<path d="M68.9694 36.5859C68.8627 36.5726 68.7628 36.5992 68.6761 36.6592C67.0901 37.7454 67.2368 38.1319 67.3101 38.3385C67.3834 38.5317 67.5766 38.745 68.0964 38.685C68.8694 38.5917 69.1493 38.8183 69.829 38.8316C72.3746 38.685 70.4954 36.6525 68.9694 36.5859ZM68.5962 37.7987C68.7295 37.6921 68.876 37.5788 69.0293 37.4655C69.4625 37.5522 69.849 37.7721 70.0556 37.9453C69.5091 38.0186 69.1826 37.812 68.5962 37.7987Z" fill="#1E4F80"/>
<path fill-rule="evenodd" clip-rule="evenodd" d="M68.9896 36.3366C68.823 36.3184 68.6657 36.3624 68.5338 36.4537L68.6761 36.6592L68.5349 36.4529C67.7358 37.0002 67.3372 37.3939 67.1556 37.7016C67.0613 37.8614 67.0207 38.0056 67.0196 38.1395C67.0184 38.2651 67.0532 38.3626 67.072 38.4154C67.0729 38.4177 67.0737 38.4199 67.0744 38.4221L67.0744 38.4221L67.0763 38.4272C67.1285 38.5647 67.2278 38.7187 67.4118 38.8238C67.5934 38.9276 67.8292 38.9675 68.125 38.9334L68.125 38.9334L68.1263 38.9332C68.4799 38.8905 68.7163 38.9204 68.9521 38.9641C68.9928 38.9717 69.0344 38.9799 69.0772 38.9883C69.2849 39.0292 69.5205 39.0756 69.8241 39.0816L69.8337 39.0818L69.8434 39.0812C70.4941 39.0437 70.9554 38.8843 71.1837 38.5775C71.433 38.2427 71.3318 37.8489 71.1366 37.544C70.9381 37.2339 70.6055 36.9438 70.2302 36.7277C69.8565 36.5124 69.4177 36.3572 68.9896 36.3366ZM68.9383 36.834C68.8957 36.8286 68.857 36.8381 68.8184 36.8648L68.8174 36.8655L68.8174 36.8655C68.0305 37.4044 67.7094 37.7471 67.5861 37.9558C67.528 38.0543 67.5198 38.1133 67.5195 38.1439C67.5192 38.1767 67.5268 38.2016 67.5447 38.2521C67.5658 38.3068 67.5997 38.3553 67.6598 38.3897C67.723 38.4258 67.8435 38.4624 68.0671 38.4367C68.4862 38.3862 68.7761 38.423 69.0433 38.4725C69.0915 38.4815 69.138 38.4906 69.1837 38.4995C69.386 38.5391 69.5728 38.5757 69.8243 38.5815C70.4394 38.5447 70.6955 38.396 70.7827 38.279C70.8493 38.1894 70.8626 38.0434 70.7155 37.8136C70.5716 37.5888 70.3074 37.3491 69.9807 37.1609C69.6551 36.9733 69.2903 36.8501 68.9585 36.8357L68.9484 36.8352L68.9383 36.834ZM68.9698 37.1987L69.0783 37.2204C69.5566 37.316 69.9808 37.5563 70.2162 37.7538L70.6502 38.1178L70.0888 38.1931C69.7746 38.2353 69.5242 38.1956 69.2924 38.1498C69.2598 38.1433 69.2279 38.1368 69.1963 38.1304C69.0017 38.0909 68.8196 38.0539 68.5905 38.0487L67.9031 38.033L68.44 37.6035C68.5756 37.495 68.7247 37.3798 68.8807 37.2645L68.9698 37.1987Z" fill="#1E4F80"/>
<path d="M72.6346 37.4723C72.2214 37.1191 71.3884 37.5323 71.1419 37.9921C70.9753 38.5919 71.595 39.4715 72.4813 39.4382C73.9007 39.3582 72.8811 37.6323 72.6346 37.4723ZM72.0548 38.292C72.0881 38.2787 72.1214 38.2653 72.1548 38.252C72.2281 38.3586 72.288 38.4719 72.3214 38.5586C72.2014 38.5452 72.1614 38.4719 72.0548 38.292Z" fill="#1E4F80"/>
<path fill-rule="evenodd" clip-rule="evenodd" d="M72.7861 37.2735C72.4741 37.0161 72.0512 37.0676 71.7324 37.1955C71.4021 37.328 71.079 37.58 70.9213 37.8741L70.9081 37.8986L70.9007 37.9254C70.7888 38.3283 70.9451 38.7812 71.2253 39.1138C71.5114 39.4534 71.9581 39.7082 72.4904 39.6882L72.4951 39.6879C72.902 39.665 73.1995 39.5174 73.3556 39.2438C73.5019 38.9874 73.4856 38.6832 73.4258 38.4283C73.3644 38.1666 73.2465 37.91 73.13 37.7101C73.0713 37.6093 73.0107 37.519 72.9541 37.4462C72.9072 37.3858 72.8487 37.3185 72.7861 37.2735ZM71.376 38.0858C71.3343 38.2813 71.4073 38.5538 71.6077 38.7917C71.8109 39.0329 72.1163 39.2011 72.4693 39.1886C72.7703 39.1712 72.8772 39.0733 72.9213 38.996C72.9753 38.9014 72.9875 38.7491 72.939 38.5425C72.8921 38.3427 72.7976 38.1329 72.6979 37.9617C72.6486 37.8769 72.6002 37.8056 72.5593 37.753C72.5262 37.7104 72.5058 37.6903 72.4993 37.6839C72.4967 37.6813 72.4963 37.681 72.4983 37.6822L72.4844 37.6733L72.4719 37.6625C72.3717 37.5769 72.1775 37.5557 71.9186 37.6595C71.6798 37.7553 71.4722 37.9268 71.376 38.0858ZM72.2472 37.9458L72.3605 38.1105C72.4429 38.2304 72.5129 38.361 72.5544 38.469L72.702 38.8526L72.2935 38.8072C72.171 38.7936 72.0753 38.742 71.9972 38.6553C71.9433 38.5956 71.8956 38.5148 71.8527 38.4419C71.8482 38.4344 71.8438 38.4269 71.8395 38.4196L71.6906 38.1685L72.2472 37.9458Z" fill="#1E4F80"/>
<path d="M86.7483 58.0638C90.3801 53.5524 92.5459 47.868 92.3327 41.9239C92.0595 19.893 66.3234 10.0304 51.0698 22.4053C49.777 20.9925 47.0048 18.3803 46.9582 18.2737C44.5725 15.968 41.0806 19.4598 43.3863 21.8455C43.413 21.8588 43.5996 22.0388 43.8861 22.332C27.5529 40.8976 40.1277 71.1184 64.6442 72.791V85.5791H53.2289C52.8624 85.5791 52.5692 85.8789 52.5692 86.2388V90.1038C52.5692 90.4704 52.8691 90.7636 53.2289 90.7636H80.7042C81.0707 90.7636 81.3639 90.4637 81.3639 90.1038V86.2388C81.3639 85.8723 81.064 85.5791 80.7042 85.5791H69.2889V72.7844C75.7395 72.3246 82.0836 69.6923 87.0282 65.4341C87.2414 65.6606 87.4613 65.8939 87.6946 66.1538C88.1877 66.6469 88.8341 66.8935 89.4805 66.8935C91.6463 66.9734 92.8724 64.0813 91.2664 62.5819L86.7483 58.0638ZM87.6346 54.5653C79.3114 69.639 55.8212 70.1721 46.8382 55.4649C39.5479 44.6627 42.9532 30.9284 51.9228 23.5248C52.3493 23.5115 52.8957 23.6048 53.3022 24.0579C53.762 24.5777 53.4288 25.5107 53.0689 26.4969C52.7091 27.3832 52.6092 28.1096 52.3959 29.0425C51.463 32.5611 51.8228 34.5736 54.9415 36.3462C54.8882 38.0854 56.3276 38.392 58.2068 38.6785C59.393 38.8918 59.7995 38.9651 60.2326 39.5382C61.1256 40.7377 62.5117 42.8102 64.131 42.4703C64.1577 42.9834 63.7045 43.903 63.6246 44.4161C63.4646 45.7289 63.3514 50.8535 66.2901 50.8402C66.8766 50.9534 66.9698 51.0068 66.9832 51.1334C67.0165 51.4199 66.9565 51.893 66.8899 52.4328C66.5434 54.0655 66.7166 56.6911 67.9894 58.0505C69.7087 60.2629 67.3297 63.5615 71.408 64.2546C72.4009 64.2546 73.5271 63.5549 73.787 63.3816C74.2068 63.1217 73.8737 62.4353 73.4139 62.6086C73.1006 62.7085 72.4809 62.8285 72.1544 62.6086C72.101 62.5686 71.9344 62.462 71.9011 62.0621C71.8611 61.4624 71.6879 60.9893 71.548 60.6094C71.2947 59.9164 71.2214 59.7098 71.9478 59.2033C75.8728 56.911 72.0677 55.4249 74.8599 54.2721C76.5192 53.6723 77.3522 54.2721 77.7987 51.7531C78.0253 50.6269 77.7987 49.9272 77.6321 49.4141C76.7525 47.6881 80.5975 46.7618 80.4509 45.549C80.2377 44.836 78.8516 45.0625 78.2651 44.4361C76.979 43.25 75.5663 44.716 74.2402 44.5294C74.2202 44.5161 74.2068 44.5094 74.1935 44.4695C73.8137 43.4965 73.827 41.7639 73.3872 41.5507C73.2206 41.4707 71.8812 40.8843 71.1215 41.444C70.7549 40.8443 70.0153 39.6115 68.2093 39.998L65.737 39.6581C65.6237 39.6448 65.5105 39.6715 65.4238 39.7381C64.8841 40.1379 63.8978 40.6377 63.478 40.4578C62.8849 39.8181 63.4114 38.4786 62.0186 37.9455C62.5917 36.3595 61.3322 36.0463 59.413 36.7393C58.4334 36.3795 57.8337 36.1129 58.9799 35.3532C61.3122 33.7606 62.2651 33.7073 63.2381 35.1267C63.6779 35.7664 64.0177 36.1196 64.4442 36.0263C65.3305 35.6998 65.0107 34.0338 65.4971 33.2008C66.1369 31.7081 66.6233 31.4149 67.5296 30.8485C68.5825 30.1687 68.8424 28.7093 70.4018 28.8293C71.8678 28.9226 71.9611 27.6764 72.0078 27.01C72.0478 26.4503 72.0944 26.2903 72.2077 26.277C73.2339 26.177 74.1469 24.811 74.1469 23.8114C74.1202 22.6785 73.4005 22.9784 72.7874 22.4986C74.4468 22.9917 74.1935 22.0787 75.0132 21.2991C75.4197 21.4324 76.146 21.8722 76.5592 22.0454C76.6458 22.2387 76.7525 22.8118 76.8058 23.4049C75.9728 23.9646 73.6537 25.5107 75.0198 26.7502C76.3926 27.7964 77.6654 26.6702 78.7649 26.2504C81.5771 25.404 81.6638 27.03 84.1694 26.3103C84.2893 26.337 84.4826 26.2437 84.6692 26.0971C91.3264 33.594 93.4789 45.0426 87.6346 54.5653ZM76.9257 21.2791C75.4464 20.5594 74.62 19.7331 73.6138 21.7522C72.4076 21.8722 73.1073 20.9459 72.8607 20.3928C72.4409 19.8064 71.3814 18.5002 70.5484 19C69.8953 19.3865 69.1889 20.4528 68.6092 21.0325C67.5763 21.6589 65.777 21.7855 64.7041 22.7385C62.9449 24.2645 65.5305 24.3911 66.4301 25.1375C67.7029 26.6369 68.8891 25.0442 70.3618 23.7447C72.3476 22.0055 71.4946 23.2716 73.1539 23.6248C73.2206 23.6315 73.2672 23.6381 73.2672 23.8247C72.8541 26.2837 71.1948 24.5644 71.1348 26.9567C71.0682 27.8497 70.9682 28.003 70.4484 27.9696C68.4626 27.8564 68.1227 29.2691 67.0631 30.1221C65.6171 30.7085 64.3043 33.0342 64.1844 34.9667C62.6583 32.3878 60.5525 33.1275 58.4867 34.6469C57.727 35.1666 57.3872 35.7064 57.4871 36.2529C57.6604 37.1858 59.0465 37.559 59.3197 37.6256C59.3997 37.6456 59.4863 37.639 59.5596 37.6123C60.8457 37.1725 61.2256 37.2658 61.2989 37.2991C61.3122 37.4257 61.1589 37.7856 60.9257 38.0988C60.6658 38.4186 61.0257 38.9118 61.4122 38.7718C61.4188 38.7718 61.6454 38.6985 61.852 38.8318C62.1052 38.9917 62.2785 39.4182 62.3451 40.0313C62.5517 42.1904 64.944 41.2042 65.7837 40.5511L68.1627 40.8776C69.3955 40.5711 70.0286 41.2175 70.3684 41.8972C70.6283 42.417 71.1415 42.8035 71.5879 42.1971C71.7279 41.9905 72.3343 42.0905 72.8075 42.2637C73.3272 44.8493 73.1273 46.2887 76.5859 44.9093C77.6654 44.5828 78.0519 45.7223 79.2647 45.8356C74.9665 48.9076 77.3122 48.4278 76.939 51.5932C76.6125 52.7194 76.8524 52.9326 75.8662 53.1192C73.4472 53.4724 72.4343 54.7719 73.0007 56.6044C73.3539 58.0838 69.4688 58.6036 70.7283 60.916C71.0348 61.5557 71.0015 63.1084 71.7079 63.3683C71.3281 63.4549 71.1015 63.355 70.8083 63.2084C70.0686 62.8618 69.5821 62.6286 69.5821 60.5961C69.5621 56.5978 66.8632 57.544 67.7495 52.5528C68.4026 48.921 66.1635 50.9201 65.0307 49.1808C64.3643 47.7414 64.3842 45.1558 64.4842 44.5694C64.7308 43.5765 65.6837 41.7306 64.1244 41.6173C62.9049 41.9572 61.6721 39.9913 60.9257 39.0317C60.1127 37.8589 58.5334 37.9522 57.0806 37.5923C54.8949 37.1725 56.6808 36.1063 54.9082 35.2666C51.9161 33.7339 52.8824 30.8951 53.4821 28.1296C54.0019 26.197 55.4546 23.6114 52.8624 22.7984C56.7541 19.8997 61.5788 18.1471 66.9632 18.227C73.8137 18.1137 79.7912 20.9925 84.0761 25.4707C81.6771 26.1304 81.5838 24.5177 78.5184 25.444C77.5988 25.7572 76.2927 26.8101 75.553 26.1038C75.1465 25.564 76.7258 24.5244 77.4722 24.0379C77.6121 23.958 77.6921 23.798 77.6854 23.6381C77.5454 21.4857 77.1057 21.3457 76.9257 21.2791ZM72.2477 22.0987C71.2681 21.1925 68.5225 24.5111 67.6562 24.8909C67.5629 24.9176 67.4697 24.9109 67.0032 24.4911C66.3968 23.958 65.7237 23.8247 65.084 23.5648C66.0836 22.5053 68.2227 22.4786 69.2223 21.6456C69.7487 21.1258 70.4218 20.1262 70.9682 19.7597C71.1615 19.793 71.6479 20.2395 72.0344 20.746C71.9744 21.0658 71.9211 21.6523 72.2477 22.0987ZM45.1656 18.8534C45.8919 18.6135 49.4438 22.7985 50.0636 23.2649C49.4771 23.7914 48.9107 24.3578 48.3642 24.9576L45.3189 21.9122L44.7658 21.359L44.3126 20.9059C43.5596 20.1862 44.1327 18.8201 45.1656 18.8534ZM80.0311 86.8985V89.4374H53.882V86.8985H80.0311ZM65.9636 85.5058V73.3042H67.9494V85.5058H65.9636ZM83.0832 66.7335C56.8541 83.6399 25.9602 53.3591 42.2401 26.7968C43.0065 25.564 43.8794 24.3911 44.8257 23.2916C45.692 24.1779 46.7649 25.2641 47.5046 25.9438C46.7649 26.8368 46.0719 27.803 45.4255 28.8426C34.7766 45.2625 47.4246 68.033 67.0032 67.6598C73.014 67.7864 78.725 65.4807 83.2031 61.6956C83.5896 62.2487 84.5559 62.9685 86.0886 64.4745C85.1357 65.2942 84.1361 66.0472 83.0832 66.7335ZM90.3202 65.2075C89.8737 65.674 89.0674 65.674 88.6209 65.2075L84.5426 61.1225L86.2419 59.4233L90.3202 63.5016C90.7866 63.9547 90.7866 64.761 90.3202 65.2075Z" fill="#1E4F80" stroke="#1E4F80"/>
</svg>
