<svg width="128" height="128" viewBox="0 0 128 128" fill="none" xmlns="http://www.w3.org/2000/svg">
<path d="M85.5466 48.0823L80.7259 46.9464C80.4433 45.816 79.8726 44.6801 79.3074 43.6882L82.0003 39.4327C82.427 38.7235 82.2829 37.8701 81.7178 37.1664L78.8807 34.3294C78.3155 33.7642 77.3182 33.6202 76.6144 34.0468L72.3589 36.7398C71.3671 36.1746 70.2312 35.7479 69.0952 35.3213L67.9593 30.5005C67.8153 29.6528 67.1115 29.082 66.2582 29.082H62.2908C61.4431 29.082 60.7338 29.6472 60.5897 30.5005L59.4538 35.3213C58.3179 35.6038 57.1875 36.169 56.1901 36.7398L51.9402 34.0468C51.2309 33.6202 50.3776 33.7642 49.6739 34.3294L46.8368 37.1664C46.2717 37.7316 46.1276 38.7235 46.5543 39.4327L49.2472 43.6882C48.682 44.6801 48.2554 45.816 47.8287 46.9464L43.2906 48.0823C42.4428 48.2264 41.8721 48.9356 41.8721 49.7834V53.7508C41.8721 54.6041 42.4373 55.3134 43.2906 55.4519L48.1113 56.5878C48.3939 57.7237 48.9646 58.8541 49.5298 59.8459L46.8368 64.1015C46.4102 64.8107 46.5543 65.6585 47.1194 66.3678L49.9565 69.1992C50.5216 69.7644 51.519 69.9085 52.2228 69.4818L56.4783 66.7889C57.4701 67.3541 58.606 67.7807 59.7364 68.2074L60.8723 73.0281C61.0164 73.8759 61.7201 74.4466 62.5734 74.4466H66.5408C67.3886 74.4466 68.0979 73.8814 68.2419 73.0281L69.3723 68.2074C70.5082 67.9248 71.6386 67.3541 72.636 66.7889L76.886 69.4818C77.5952 69.9085 78.4485 69.7644 79.1522 69.1992L81.9893 66.3678C82.5545 65.8026 82.6985 64.8052 82.2719 64.1015L79.5789 59.8459C80.1441 58.8541 80.5708 57.7182 80.9974 56.5878L85.8181 55.4519C86.6659 55.3078 87.2366 54.6041 87.2366 53.7508V49.7834C86.8211 49.0797 86.2559 48.3704 85.5466 48.0823Z" stroke="#F8F8F8" stroke-width="2.5" stroke-miterlimit="10"/>
<path d="M64.424 47.916C62.2796 47.916 60.4233 49.6725 60.4233 51.9167C60.4233 54.061 62.1799 55.9173 64.424 55.9173C66.5684 55.9173 68.4246 54.1608 68.4246 51.9167C68.3249 49.667 66.5684 47.916 64.424 47.916Z" stroke="#F8F8F8" stroke-width="2.5" stroke-miterlimit="10"/>
<path d="M64.4243 40.5742C63.4324 40.5742 62.5791 41.422 62.5791 42.4194C62.5791 43.4112 63.4269 44.2646 64.4243 44.2646C68.6743 44.2646 72.2205 47.8108 72.2205 52.0608C72.2205 53.0527 73.0738 53.906 73.9216 53.906C74.9135 53.906 75.7668 53.0582 75.7668 52.0608C75.6227 45.672 70.6635 40.5742 64.4243 40.5742Z" stroke="#F8F8F8" stroke-width="2.5" stroke-miterlimit="10"/>
<path d="M64.4241 59.5689C60.1686 59.5689 56.6278 56.1667 56.6278 51.7727C56.6278 50.7808 55.7745 49.9275 54.7827 49.9275C53.7908 49.9275 52.9375 50.7753 52.9375 51.7727C52.9375 58.0119 58.0408 63.1152 64.28 63.1152C65.2719 63.1152 66.1252 62.2674 66.1252 61.4141C66.1252 60.4167 65.4159 59.5689 64.4241 59.5689Z" stroke="#F8F8F8" stroke-width="2.5" stroke-miterlimit="10"/>
<path d="M71.6053 86.0991H57.0767V89.0026H71.6053V86.0991Z" stroke="#F8F8F8" stroke-width="2.5" stroke-miterlimit="10"/>
<path d="M68.1365 102.689C68.1365 102.982 67.8428 103.575 67.2444 103.575H61.3099C61.0162 103.575 60.4233 103.282 60.4233 102.689V99.7188H68.1365V102.689Z" stroke="#F8F8F8" stroke-width="2.5" stroke-miterlimit="10"/>
<path d="M71.6001 95.1172C71.6001 95.5827 71.251 95.9318 70.7855 95.9318C66.4857 95.9318 66.0202 95.9318 57.7696 95.9318C57.3042 95.9318 56.9551 95.5827 56.9551 95.1172V92.2581H71.6001V95.1172Z" stroke="#F8F8F8" stroke-width="2.5" stroke-miterlimit="10"/>
<path d="M72.7469 77.1589C72.0321 77.4471 71.4558 78.0178 71.4558 78.8822V82.0406H57.1045V78.8822C57.1045 78.1674 56.6723 77.4471 55.8134 77.1589C44.7646 73.5739 37.3008 63.2398 37.3008 51.6202C37.3008 36.8423 49.3526 24.6409 64.2801 24.6409C79.2022 24.6409 91.254 36.6927 91.254 51.6202C91.254 63.2398 83.7957 73.5683 72.7469 77.1589Z" stroke="#F8F8F8" stroke-width="2.5" stroke-miterlimit="10"/>
<path d="M37.7718 31.3725C37.7718 28.3914 35.3614 25.9866 32.3859 25.9866C29.4104 25.9866 27 28.3969 27 31.3725C27 34.348 29.4104 36.7584 32.3859 36.7584C35.3614 36.7584 37.7718 34.348 37.7718 31.3725Z" stroke="#F8F8F8" stroke-width="2.5" stroke-miterlimit="10"/>
<path d="M42.6259 85.4143C43.6455 85.4143 44.4711 86.2399 44.4711 87.2595C44.4711 88.279 43.6455 89.1046 42.6259 89.1046C41.6064 89.1046 40.7808 88.279 40.7808 87.2595C40.7808 86.2399 41.6064 85.4143 42.6259 85.4143Z" stroke="#F8F8F8" stroke-width="2.5" stroke-miterlimit="10"/>
<path d="M31.4438 91.6204C32.4634 91.6204 33.289 92.446 33.289 93.4655C33.289 94.4851 32.4634 95.3107 31.4438 95.3107C30.4242 95.3107 29.5986 94.4851 29.5986 93.4655C29.5986 92.446 30.4242 91.6204 31.4438 91.6204Z" stroke="#F8F8F8" stroke-width="2.5" stroke-miterlimit="10"/>
<path d="M99.8647 70.3594C100.884 70.3594 101.71 71.185 101.71 72.2045C101.71 73.2241 100.884 74.0497 99.8647 74.0497C98.8451 74.0497 98.0195 73.2241 98.0195 72.2045C98.0195 71.1795 98.8451 70.3594 99.8647 70.3594Z" stroke="#F8F8F8" stroke-width="2.5" stroke-miterlimit="10"/>
<path d="M94.479 31.3726C95.4985 31.3726 96.3241 32.1982 96.3241 33.2177C96.3241 34.2373 95.4985 35.0629 94.479 35.0629C93.4594 35.0629 92.6338 34.2373 92.6338 33.2177C92.6338 32.1926 93.4594 31.3726 94.479 31.3726Z" stroke="#F8F8F8" stroke-width="2.5" stroke-miterlimit="10"/>
<path d="M45.6375 19C47.0948 19 48.2695 20.1802 48.2695 21.6375C48.2695 23.0948 47.0893 24.2751 45.6375 24.2751C44.1802 24.2751 43 23.0948 43 21.6375C43.0055 20.1802 44.1802 19 45.6375 19Z" stroke="#F8F8F8" stroke-width="2.5" stroke-miterlimit="10"/>
<path d="M84.5548 91.7921C83.1363 91.7921 81.8618 90.6562 81.8618 89.0992C81.8618 87.5366 82.9977 86.4062 84.5548 86.4062C86.1173 86.4062 87.2477 87.5422 87.2477 89.0992C87.2477 90.6562 85.9733 91.7921 84.5548 91.7921Z" stroke="#F8F8F8" stroke-width="2.5" stroke-miterlimit="10"/>
</svg>
