<svg width="128" height="128" viewBox="0 0 128 128" fill="none" xmlns="http://www.w3.org/2000/svg">
<path d="M63.2107 70.7386C60.4125 70.7874 58.1478 73.1074 58.1555 75.9064C58.1639 78.7466 60.4844 81.0442 63.3245 81.0276C63.3245 81.0276 63.3903 81.0264 63.3986 81.0263C66.1969 80.9774 68.4615 78.6574 68.4538 75.8584C68.4463 74.4837 67.9051 73.1923 66.9333 72.2296C65.9449 71.2589 64.6513 70.7299 63.2107 70.7386ZM63.3659 79.6273L63.3165 79.6281C61.2503 79.6395 59.5663 77.9647 59.5549 75.8985C59.544 73.8569 61.2023 72.1732 63.2846 72.1369C64.2807 72.1359 65.2259 72.5146 65.9381 73.2267C66.6501 73.9305 67.0452 74.8704 67.0462 75.8665C67.0489 77.9082 65.3988 79.5918 63.3659 79.6273Z" fill="#F8F8F8"/>
<path d="M101.215 38.7742L81.3504 38.8492L81.3018 26.6326C81.2954 25.793 80.8454 25.0105 80.0708 24.4971C79.4462 24.0882 78.6518 23.855 77.8286 23.8612C77.8204 23.8613 77.7545 23.8625 77.7463 23.8626C77.5652 23.8658 77.3843 23.8772 77.1955 23.9052C77.0056 23.8755 76.816 23.8624 76.6185 23.8658L49.9625 23.9689C49.9543 23.969 49.8967 23.97 49.8884 23.9702C49.8308 23.9712 49.7732 23.9722 49.7156 23.9732C49.6331 23.9664 49.5344 23.9681 49.4109 23.9703C47.5015 24.0036 46.0081 25.2317 46.0103 26.7711L46.0589 38.9878L26.1945 39.0628C26.1862 39.0629 26.1204 39.0641 26.1122 39.0642C22.9353 39.1197 20.3632 41.7497 20.3692 44.9274L20.4726 71.5999C20.4752 73.1641 21.0935 74.6269 22.1994 75.7273C23.2382 76.7547 24.5987 77.3484 26.0488 77.4137L26.1342 98.8092C26.136 100.332 26.6634 101.772 27.6126 102.859C28.6124 104.01 29.9489 104.637 31.3894 104.629L96.5228 104.373C96.531 104.372 96.5804 104.372 96.5804 104.372C99.4281 104.322 101.737 101.688 101.722 98.5106L101.637 77.1151C104.722 76.9543 107.179 74.3757 107.174 71.2638L107.071 44.5913C107.072 41.3723 104.442 38.759 101.215 38.7742ZM48.8205 26.9361C48.9264 26.8684 49.1554 26.7821 49.5011 26.7761C49.5256 26.7674 49.6082 26.7824 49.6576 26.7816C49.7236 26.7887 49.7976 26.7874 49.8633 26.778L49.9703 26.7761L76.6428 26.6728C76.7251 26.6714 76.8075 26.6781 76.8985 26.7012C77.0969 26.7472 77.2944 26.7437 77.4913 26.7074C77.5981 26.689 77.6885 26.6792 77.8365 26.6684C78.1657 26.6627 78.3979 26.7574 78.506 26.8214L78.5516 38.8652L77.2097 38.8721L77.1748 30.2695C77.1696 29.4957 76.5412 28.8727 75.7674 28.878L51.5729 28.971C51.219 28.9772 50.8428 29.1237 50.5839 29.3834C50.325 29.6432 50.1748 29.9998 50.1814 30.3784L50.2163 38.981L48.8745 38.988L48.8205 26.9361ZM53.0069 38.9653L52.98 31.762L74.3838 31.6766L74.4107 38.8798L53.0069 38.9653ZM96.5482 101.581L96.5235 101.582L31.3901 101.838C30.7809 101.84 30.1914 101.554 29.7377 101.027C29.2335 100.443 28.948 99.6492 28.9496 98.8012L28.8646 77.4222L52.1782 77.3281L52.1853 80.0941C52.1962 81.6582 52.8062 83.1212 53.9122 84.2216C55.0181 85.3219 56.494 85.9219 58.05 85.9194L68.6038 85.8834C68.612 85.8832 68.6778 85.8821 68.6861 85.8819C71.8629 85.8265 74.4433 83.1963 74.4289 80.0105L74.4135 77.2446L98.8385 77.1475L98.9235 98.5266C98.9442 100.181 97.8732 101.558 96.5482 101.581ZM71.6223 75.8114L71.6309 77.252L71.6463 80.0179C71.6505 81.6726 70.3078 83.0462 68.6535 83.0751L68.6124 83.0758L58.0503 83.112C57.2354 83.118 56.4725 82.802 55.8944 82.2275C55.3163 81.6531 54.9984 80.893 54.9924 80.0781L54.9623 71.747C54.9581 70.0923 56.2925 68.7189 57.9962 68.6891L68.5498 68.6448C69.3648 68.6389 70.1277 68.9548 70.7058 69.5293C71.2839 70.1037 71.6018 70.8638 71.6078 71.6788L71.6223 75.8114ZM104.392 71.2712C104.396 72.9259 103.053 74.2995 101.399 74.3284L101.358 74.3291L74.4221 74.437L74.4068 71.6711C74.4042 70.1069 73.7859 68.644 72.68 67.5437C71.574 66.4433 70.0981 65.8434 68.5421 65.8458L57.9885 65.8901C57.9803 65.8902 57.9144 65.8914 57.9062 65.8915C54.7293 65.947 52.1572 68.577 52.1634 71.763L52.1705 74.529L28.8569 74.6231L26.3461 74.634C26.2473 74.6358 26.1564 74.6126 26.0575 74.6061C25.3566 74.5443 24.7011 74.2511 24.1901 73.7496C23.612 73.1752 23.2942 72.4151 23.2882 71.6001L23.1849 44.9277C23.1807 43.273 24.5233 41.8993 26.2188 41.8698L46.0832 41.7947C46.0939 43.3505 47.6217 44.567 49.6221 44.5568C51.5315 44.5235 53.0167 43.2955 53.0146 41.7643L74.4184 41.6788C74.4248 42.5185 74.8747 43.2927 75.6493 43.8061C76.2739 44.2151 77.0683 44.4482 77.8997 44.4419C77.9079 44.4418 77.9573 44.4409 77.9573 44.4409C79.8667 44.4076 81.3519 43.1796 81.3581 41.6482L101.223 41.5732C102.902 41.5686 104.276 42.9277 104.28 44.6071L104.392 71.2712Z" fill="#F8F8F8"/>
</svg>
